<svg xmlns="http://www.w3.org/2000/svg" viewBox="0 0 332.34 245.29"><defs><style>.cls-1{fill:#fff;}</style></defs><title>Advisor Icon</title><g id="Layer_2" data-name="Layer 2"><g id="Layer_1-2" data-name="Layer 1"><g id="d0IFe5.tif"><path class="cls-1" d="M65.66,143.65c-3.91,17.26-7.91,34.5-11.69,51.79-.62,2.85-1.73,3.69-4.5,3.16-10.41-2-20.61-4.09-29.56-10.61-3.85-2.8-9.21-3.52-13.87-5.22-2-.73-4-1.54-6-2.31,1-.48,1.9,0,2.8.33,3.79,1.29,7.6,2.51,11.39,3.81a42.06,42.06,0,0,1,9.5,4.81c6.72,4.42,14.42,6.28,22.24,7.65,6.44,1.12,6.49,1.08,7.93-5.27,3.48-15.4,7.39-30.72,10.35-46.22,2.72-14.24,12.95-21.76,24.54-23.1,2.47-.29,4.86-1.08,7.35-1.25.51,0,1,0,.79,0a74.1,74.1,0,0,1-11.34-2.4c-1.48-.38-2.31-.84-2.51-1.47l16.64,3.88-13.42,2.7C75.19,126.1,68.18,132.53,65.66,143.65Z"/><path class="cls-1" d="M0,179.15c2.58-7.89,3.84-16.1,5.82-24.13,1.57-6.39,3.13-12.79,4.39-19.25,1.1-5.65,4.53-8.55,9.89-9.74,11.79-2.63,23.58-5.32,35.36-8,.84-.19,1.66-.47,2.87-.82a57.7,57.7,0,0,1-12.51-16.57c-1.34-2.69-2.56-5.41-4.72-7.65a14,14,0,0,1-3.22-7c-.27-1.24-.68-3-.08-3.8,3.91-5.45,2.31-12,4-17.92,3.09-10.92,8.76-19.54,20.45-22,20-4.22,35.37,4.58,38.36,27.85.31,2.35.39,4.73.6,7.09,0,.53,0,1.26.32,1.54a6.28,6.28,0,0,1,2.27,5.78,16.7,16.7,0,0,1-4,9.07,21.91,21.91,0,0,0-3.61,5.69,57.85,57.85,0,0,1-13.16,18c-.18-.62.26-1.4,1.27-2.42A60.18,60.18,0,0,0,96.22,97.2c1.09-2.37,3.2-4.08,4.39-6.41,1.94-3.77,3.28-7.35.54-11.55-1.56-2.4-1-5.67-1.4-8.55C98.92,64.75,97.55,59,94.2,53.9c-4.89-7.47-11.85-11.09-20.64-11.52-6.69-.32-13.16.16-19,4-7.91,5.28-11.18,13.21-12.68,22.1a40.75,40.75,0,0,0-.82,8.06,3.53,3.53,0,0,1-.56,2.49c-3.35,3.86-2.24,8.06.14,11.4,3.72,5.23,6.22,11.11,9.79,16.38a54.68,54.68,0,0,0,6.27,7.42c2.66,2.72,2.34,3.76-1.32,4.62-10.75,2.49-21.5,4.92-32.26,7.37-1.27.29-2.52.62-3.78.9-4.63,1-7.23,4-8.24,8.55-2.28,10.35-4.73,20.65-7,31-.77,3.49-1.64,7-2.44,10.42C1.45,178,1.41,179.2,0,179.15Z"/><path class="cls-1" d="M177.67,132.7c1.08.4.71,1.09.23,1.78-3.51,5-7,10.07-10.49,15.14-1,1.51-1.73,1.1-2.59-.15-3.41-5-6.87-9.92-10.3-14.88-.4-.58-1.12-1.36,0-1.8,3.82-1.45,7.68-2.8,11.59-4.21C170,129.94,173.83,131.3,177.67,132.7Z"/><path class="cls-1" d="M115.09,66.48c-.3-2.67.25-5.34,2.44-7.07,1.62-1.29,1.77-2.77,1.79-4.55.12-10.26,1.75-20.23,6-29.64C131.78,11,142.89,2.89,158.34.69c.69-.1,1.57.23,2-.69-.7,2.27-2.82,1.56-4.3,1.87-11.35,2.32-20.52,7.87-26.79,17.78a56.12,56.12,0,0,0-7.64,20.56,63.63,63.63,0,0,0-1.33,14.5,6.47,6.47,0,0,1-1.88,5c-2.34,2.47-2.84,5.35-2.17,8.71A27.48,27.48,0,0,0,122.8,81.6a22.53,22.53,0,0,1,3.66,5.67c5.58,12,12.83,22.77,23.34,31.11,11.8,9.37,21,9.39,32.73,0,10.39-8.28,17.66-18.9,23.13-30.85a19.48,19.48,0,0,1,3.44-5.45,27.49,27.49,0,0,0,7.19-14.62c.44-2.65.07-5.11-1.73-7-2.18-2.26-2.51-4.82-2.53-7.72a67.69,67.69,0,0,0-5.74-27.1C200.23,12,189.63,4.25,175,1.64c-1.11-.2-2.74.22-3-1.64,2,1.18,4.3,1,6.45,1.5,17.62,4.19,27.17,16.18,31.81,32.88A75.61,75.61,0,0,1,213,54.88c0,1.79.21,3.24,1.8,4.54,2.25,1.84,2.76,4.6,2.39,7.4a26.29,26.29,0,0,1-7.76,16,15.11,15.11,0,0,0-2.95,5c-5.55,12-12.87,22.75-23.27,31.16-12.07,9.76-22.07,9.76-34.16,0-10.76-8.7-18.21-19.84-23.78-32.35a13,13,0,0,0-2.67-4A26.55,26.55,0,0,1,115.09,66.48Z"/><path class="cls-1" d="M274.53,212.09c.53,2.29.46,3.6-2.32,4.36-4.78,1.3-9.39,3.21-14.09,4.82-6.82,2.33-13.39,4.81-19.49,9.06-9.91,6.91-21.71,9.53-33.45,11.52-29.51,5-59,4.82-88.17-2.23-10.44-2.52-20.61-5.84-28.85-13.26a7.7,7.7,0,0,0-2.65-1.16c-8.67-3-17.33-6.06-26-9-1.66-.56-2.34-1.1-1.87-3.15C63,189.89,68.1,166.7,73.5,143.57c1.61-6.91,6.65-10.78,13.41-12.13,18.2-3.64,36.44-7.08,54.66-10.61,0,.18.05.34.08.51-4.23,2.81-8.43,5.64-12.68,8.41-1.29.84-2,1.55-1.43,3.36q12,37.31,23.85,74.67c.08.27.36.49.83,1.11,4.58-18.91,9.07-37.47,13.57-56l.69-.07q6.75,27.86,13.51,55.75c1.42-.4,1.21-1.74,1.49-2.63,7.69-24,15.27-47.94,23-71.87.75-2.32.3-3.47-1.68-4.69a113.33,113.33,0,0,1-12.07-8.53c18.22,3.52,36.46,6.94,54.65,10.61,7.43,1.5,12.11,6,13.82,13.7C264.23,167.49,269.38,189.79,274.53,212.09Z"/><path class="cls-1" d="M311.73,187.59c6.08-3.95,13.35-5.86,20.61-7.14q-8.82,3.18-17.64,6.37a9.13,9.13,0,0,0-2.63,1.19c-8.83,7.08-19.49,8.85-30.17,10.65-2,.34-2.9-.28-3.35-2.27-3.88-17.38-7.9-34.72-11.76-52.1-2.51-11.31-9.39-18.21-20.72-20.41a114.51,114.51,0,0,1-12.37-2.93l15.1-3.52c0-1.25-1-1.64-1.62-2.26a57.88,57.88,0,0,1-11.5-16.75,15.8,15.8,0,0,0-2.76-4.32,16.93,16.93,0,0,1-4.21-8.62c-.19-1-.53-2.48,0-3.17,3.76-5.15,2.34-11.39,3.78-17C235.36,54,241,45.18,253.08,42.22c20-4.9,35.82,6.23,38.34,26.82.32,2.57.45,5.16.68,7.74.06.64-.06,1.49.29,1.87,4.66,4.9,2,9.61-.87,13.74a93.68,93.68,0,0,0-5.75,9.67A55.18,55.18,0,0,1,274,117.14c-.31-1.35,1-2.24,1.85-3.08a52.42,52.42,0,0,0,11.23-16.53,16.22,16.22,0,0,1,2.7-4A17.18,17.18,0,0,0,293.49,86c.34-1.38.77-3-.06-4.12-3-3.85-2.16-8.46-2.88-12.74-1.6-9.51-5-17.86-13.59-23.28-15.16-9.52-36.32-2.21-42.08,14.65a54.75,54.75,0,0,0-2.4,10.4c-.49,3.68-.29,7.48-2.5,10.9-1.44,2.25-.43,5.08.9,7.11,5.57,8.44,9.24,18.12,16.68,25.34,2.73,2.65,2.41,3.76-1.3,4.62s-7.57,2.17-11.4,2.19c5.53.76,11.3,1.24,16.67,3.41,8.5,3.43,13.88,9.63,15.9,18.67,3.79,17,7.72,33.94,11.59,50.91.82,3.6,1.3,4,4.83,3.37C293.71,195.78,303.1,193.2,311.73,187.59Z"/><path class="cls-1" d="M291.7,121.38l21.15,4.82c5,1.14,8.06,4.11,9.2,9.26,3.1,14,6.37,28,9.57,42,.14.62.06,1.32.71,1.72-1.77-.24-1.64-1.8-1.9-2.94-2.93-12.75-6-25.46-8.65-38.27-1.35-6.54-4.62-10.17-11.31-11.48-11.14-2.17-22.15-4.94-33.21-7.49-1.22-.28-2.8-.31-3.24-1.66C280.23,118.74,286,120.07,291.7,121.38Z"/><path class="cls-1" d="M217.21,66.82a26.29,26.29,0,0,1-7.76,16,15.11,15.11,0,0,0-2.95,5c-5.55,12-12.87,22.75-23.27,31.16-12.07,9.76-22.07,9.76-34.16,0-10.76-8.7-18.21-19.84-23.78-32.35a13,13,0,0,0-2.67-4,26.55,26.55,0,0,1-7.54-16.14c-.3-2.67.25-5.34,2.44-7.07,1.62-1.29,1.77-2.77,1.79-4.55.12-10.26,1.75-20.23,6-29.64C131.78,11,142.89,2.89,158.34.69c.69-.1,1.57.23,2-.69h1.95a12.93,12.93,0,0,0,6.49,0H172c2,1.18,4.3,1,6.45,1.5,17.62,4.19,27.17,16.18,31.81,32.88A75.61,75.61,0,0,1,213,54.88c0,1.79.21,3.24,1.8,4.54C217.07,61.27,217.58,64,217.21,66.82Z"/><path class="cls-1" d="M332.34,179.15v1.3q-8.82,3.18-17.64,6.37a9.13,9.13,0,0,0-2.63,1.19c-8.83,7.08-19.49,8.85-30.17,10.65-2,.34-2.9-.28-3.35-2.27-3.88-17.38-7.9-34.72-11.76-52.1-2.51-11.31-9.39-18.21-20.72-20.41a114.51,114.51,0,0,1-12.37-2.93l15.1-3.52c0-1.25-1-1.64-1.62-2.26a57.88,57.88,0,0,1-11.5-16.75,15.8,15.8,0,0,0-2.76-4.32,16.93,16.93,0,0,1-4.21-8.62c-.19-1-.53-2.48,0-3.17,3.76-5.15,2.34-11.39,3.78-17C235.36,54,241,45.18,253.08,42.22c20-4.9,35.82,6.23,38.34,26.82.32,2.57.45,5.16.68,7.74.06.64-.06,1.49.29,1.87,4.66,4.9,2,9.61-.87,13.74a93.68,93.68,0,0,0-5.75,9.67A55.18,55.18,0,0,1,274,117.14l-.14.13.19,0c6.2,1.43,11.93,2.76,17.67,4.07l21.15,4.82c5,1.14,8.06,4.11,9.2,9.26,3.1,14,6.37,28,9.57,42C331.77,178,331.68,178.76,332.34,179.15Z"/><path class="cls-1" d="M103.78,84.55a16.7,16.7,0,0,1-4,9.07,21.91,21.91,0,0,0-3.61,5.69,57.85,57.85,0,0,1-13.16,18l0,0h0l16.64,3.88-13.42,2.7c-11.06,2.23-18.07,8.65-20.6,19.77-3.91,17.26-7.91,34.5-11.69,51.79-.62,2.85-1.73,3.69-4.5,3.16-10.41-2-20.61-4.09-29.56-10.61-3.85-2.8-9.21-3.52-13.87-5.22-2-.73-4-1.54-6-2.31v-1.3c2.58-7.89,3.84-16.1,5.82-24.13,1.57-6.39,3.13-12.79,4.39-19.25,1.1-5.65,4.53-8.55,9.89-9.74,11.79-2.63,23.58-5.32,35.36-8,.84-.19,1.66-.47,2.87-.82a57.7,57.7,0,0,1-12.51-16.57c-1.34-2.69-2.56-5.41-4.72-7.65a14,14,0,0,1-3.22-7c-.27-1.24-.68-3-.08-3.8,3.91-5.45,2.31-12,4-17.92,3.09-10.92,8.76-19.54,20.45-22,20-4.22,35.37,4.58,38.36,27.85.31,2.35.39,4.73.6,7.09,0,.53,0,1.26.32,1.54A6.28,6.28,0,0,1,103.78,84.55Z"/><path class="cls-1" d="M168.77,0a7.28,7.28,0,0,1-6.49,0Z"/><path class="cls-1" d="M272.21,216.44c-4.78,1.3-9.39,3.21-14.09,4.82-6.82,2.33-13.39,4.81-19.49,9.06-9.91,6.91-21.71,9.53-33.45,11.52-29.51,5-59,4.82-88.17-2.23-10.44-2.52-20.61-5.84-28.85-13.26a7.7,7.7,0,0,0-2.65-1.16c-8.67-3-17.33-6.06-26-9-1.66-.56-2.34-1.1-1.87-3.15C63,189.89,68.1,166.7,73.5,143.57c1.61-6.91,6.65-10.78,13.41-12.13,18.2-3.64,36.44-7.08,54.66-10.61,0,.18.05.34.08.51-4.23,2.81-8.43,5.64-12.68,8.41-1.29.84-2,1.55-1.43,3.36q12,37.31,23.85,74.67c.08.27.36.49.83,1.11,4.58-18.91,9.07-37.47,13.57-56l.69-.07q6.75,27.86,13.51,55.75c1.42-.4,1.21-1.74,1.49-2.63,7.69-24,15.27-47.94,23-71.87.75-2.32.3-3.47-1.68-4.69a113.33,113.33,0,0,1-12.07-8.53c18.22,3.52,36.46,6.94,54.65,10.61,7.43,1.5,12.11,6,13.82,13.7,5,22.33,10.15,44.63,15.29,66.93C275.06,214.38,275,215.68,272.21,216.44Z"/><path class="cls-1" d="M177.9,134.48c-3.51,5-7,10.07-10.49,15.14-1,1.51-1.73,1.1-2.59-.15-3.41-5-6.87-9.92-10.3-14.88-.4-.58-1.12-1.36,0-1.8,3.82-1.45,7.68-2.8,11.59-4.21,3.85,1.37,7.7,2.73,11.53,4.13C178.74,133.1,178.37,133.79,177.9,134.48Z"/></g></g></g></svg>