<svg xmlns="http://www.w3.org/2000/svg" viewBox="0 0 184.99 187.12"><defs><style>.cls-1{fill:#fff;}</style></defs><title>check box_1</title><g id="Layer_2" data-name="Layer 2"><g id="Layer_1-2" data-name="Layer 1"><g id="xXigi9.tif"><path class="cls-1" d="M185,0c0,13.66,0,27.33-.18,41,0,1.65-.46,3.84-1.56,4.86-20.32,19-37,41.08-53.86,63-12.18,15.85-23.89,32-35.64,48.22-1.95,2.68-4,3.45-7.28,4-11.08,1.8-17.31-2.8-22.86-12.34C53.32,131,41.5,114.23,30.32,97.06c-.52-.81-1-1.68-1.63-2.91L53.08,79.5l28.44,45.78c1.26-1.66,2.32-3,3.3-4.39,24.61-34.64,49.17-69.33,77.59-101C168.92,12.63,176.76,6.59,184,0Z"/></g><path class="cls-1" d="M148.56,106.56v55a13,13,0,0,1-13,13H25.61a13,13,0,0,1-13-13V51.61a13,13,0,0,1,13-13h85.3V26H13A13,13,0,0,0,0,39v135a13,13,0,0,0,13,13h135a13,13,0,0,0,13.05-13V106.56Z"/></g></g></svg>