<svg xmlns="http://www.w3.org/2000/svg" viewBox="0 0 111.65 111.65"><defs><style>.cls-1{fill:#fff;}</style></defs><title>No Robots</title><g id="Layer_2" data-name="Layer 2"><g id="Layer_1-2" data-name="Layer 1"><path class="cls-1" d="M34.81,29.11V65.17a3,3,0,0,0,3,3h36a3,3,0,0,0,3-3V29.11a3,3,0,0,0-3-3h-36A3,3,0,0,0,34.81,29.11Zm33.6,33.61H43.18a3,3,0,0,1-3-3V34.52a3,3,0,0,1,3-3H68.42a3,3,0,0,1,3,3V59.76A3,3,0,0,1,68.42,62.73Z"/><circle class="cls-1" cx="48.79" cy="40.4" r="4.63"/><circle class="cls-1" cx="62.82" cy="40.4" r="4.63"/><path class="cls-1" d="M47.09,50.26h1.39v7.92H47.09a3,3,0,0,1-2.94-2.94v-2A3,3,0,0,1,47.09,50.26Z"/><rect class="cls-1" x="49.74" y="50.26" width="1.42" height="7.92"/><rect class="cls-1" x="52.41" y="50.26" width="1.42" height="7.92"/><rect class="cls-1" x="55.1" y="50.26" width="1.46" height="7.92"/><rect class="cls-1" x="57.81" y="50.26" width="1.36" height="7.92"/><rect class="cls-1" x="60.43" y="50.26" width="1.43" height="7.92"/><path class="cls-1" d="M67.45,53.2v2a3,3,0,0,1-2.94,2.94H63.12V50.26h1.39A3,3,0,0,1,67.45,53.2Z"/><rect class="cls-1" x="55.77" y="15.87" width="4.83" height="14.12" transform="translate(19.26 -26.02) rotate(30)"/><circle class="cls-1" cx="62.82" cy="14.9" r="4.63"/><path class="cls-1" d="M80,77.17V92.7H74V82.95a4.66,4.66,0,0,0-4.2-4.63l-.45,0H41.86a4.66,4.66,0,0,0-3.47,2h0a4.69,4.69,0,0,0-.79,2.6V92.7h-6V77.17a4,4,0,0,1,.18-1.2A4.34,4.34,0,0,1,36,72.81H75.64a4.36,4.36,0,0,1,4.17,3.11A4.26,4.26,0,0,1,80,77.17Z"/><path class="cls-1" d="M80,78.88a39,39,0,0,0-3.71-3A37.56,37.56,0,0,0,71,72.81H40.66A38,38,0,0,0,35.32,76a40.22,40.22,0,0,0-3.71,3A45.37,45.37,0,0,0,21.27,92.7h5.66a39.79,39.79,0,0,1,4.68-6.42,36.09,36.09,0,0,1,3.56-3.49,35.12,35.12,0,0,1,3.22-2.44h0a4.66,4.66,0,0,1,3.47-2,30.44,30.44,0,0,1,27.94,0,4.65,4.65,0,0,1,3.36,2,34,34,0,0,1,3.27,2.47A38.31,38.31,0,0,1,80,86.22a40.63,40.63,0,0,1,4.74,6.48h5.66A45.35,45.35,0,0,0,80,78.88Z"/><path class="cls-1" d="M95.3,16.35a55.83,55.83,0,1,0,0,79A55.83,55.83,0,0,0,95.3,16.35ZM19.76,91.89a51,51,0,1,1,72.12,0A51,51,0,0,1,19.76,91.89Z"/><rect class="cls-1" x="52.86" y="-9.58" width="5.93" height="130.82" transform="translate(55.83 -23.12) rotate(45)"/></g></g></svg>