<svg xmlns="http://www.w3.org/2000/svg" viewBox="0 0 200 161.12"><defs><style>.cls-1,.cls-2{fill:#fff;}.cls-2{font-size:67.35px;font-family:FilsonSoftBlack, Filson Soft;}</style></defs><title>Plan</title><g id="Layer_2" data-name="Layer 2"><g id="Layer_1-2" data-name="Layer 1"><g id="_9DpYVs.tif" data-name="9DpYVs.tif"><path class="cls-1" d="M200,65V81c-2.11,6.79-4,13.65-6.42,20.33-1.11,3.07-2.34,7.29-7.34,5-4.58-2.13-3.73-5.37-1.93-9.15A56.13,56.13,0,0,0,188.87,63c-2.22-13.37-9.84-22.66-21.54-28.91C155,27.46,141.57,24,127.75,22.65,110.89,21,94,20.19,76.58,19c-.24,4.44-.42,7.64-.68,12.34L59.25,16.12,76,0c.14,2.52.33,5.87.54,9.74h6.14c24.38,0,48.71,1,72.16,8.38A109.73,109.73,0,0,1,176.57,28c12.69,7.36,19.89,18.83,22.38,33.27A37.67,37.67,0,0,0,200,65Z"/><path class="cls-1" d="M36.12,112.78C25.77,108,13.53,110.34,6.3,119.27,3.56,122.65,2.06,127,0,131v10c.64,1.49,1.3,3,1.93,4.47,4.48,10.74,15.06,16.85,26.88,15.5,10.94-1.24,19.76-10,21.72-21.6C52.33,128.71,46.26,117.51,36.12,112.78ZM25.22,151a15.17,15.17,0,1,1,15.45-15A15.34,15.34,0,0,1,25.22,151Z"/><path class="cls-1" d="M96.34,110.34a25.37,25.37,0,1,0,25.6,25.25A25.57,25.57,0,0,0,96.34,110.34ZM96.76,151a15.17,15.17,0,1,1,15.06-15.43A15.38,15.38,0,0,1,96.76,151Z"/><path class="cls-1" d="M167.8,110.34a25.37,25.37,0,1,0-.31,50.74,25.37,25.37,0,0,0,.31-50.74Zm0,40.62a15.18,15.18,0,1,1,15.15-15.31A15.29,15.29,0,0,1,167.77,151Z"/></g><text class="cls-2" transform="translate(37.89 94.55)">$</text><text class="cls-2" transform="translate(109.04 94.55)">$</text></g></g></svg>