<svg xmlns="http://www.w3.org/2000/svg" viewBox="0 0 248.35 184.6"><defs><style>.cls-1,.cls-2{fill:#fff;}.cls-2{font-size:120.21px;font-family:FilsonSoftBlack, Filson Soft;}</style></defs><title>Asset 6</title><g id="Layer_2" data-name="Layer 2"><g id="Layer_1-2" data-name="Layer 1"><path class="cls-1" d="M24.77,143.7c.14.17.3.34.46.51.22-.12.44-.24.65-.37A.91.91,0,0,1,24.77,143.7Zm15.95,5,.47-.32-.32.2Z"/><path class="cls-1" d="M25.88,143.84c-.21.13-.43.25-.65.37-.16-.17-.32-.34-.46-.51A.91.91,0,0,0,25.88,143.84Z"/><path class="cls-1" d="M40.87,148.62l.32-.2-.47.32Z"/><path class="cls-1" d="M25.88,143.84c-.21.13-.43.25-.65.37-.16-.17-.32-.34-.46-.51A.91.91,0,0,0,25.88,143.84Z"/><path class="cls-1" d="M37,154.73"/><path class="cls-1" d="M25.88,143.84c-.21.13-.43.25-.65.37-.16-.17-.32-.34-.46-.51A.91.91,0,0,0,25.88,143.84Z"/><path class="cls-1" d="M40.87,148.62l.32-.2-.47.32Z"/><path class="cls-1" d="M162.19,43a85.68,85.68,0,0,0-76-43c-44.78.83-81.75,36.6-84,81.32a85.42,85.42,0,0,0,9,42.85c.23.46.47.92.71,1.37.44.85.91,1.7,1.39,2.53q1.46,2.56,3.09,5c.27.41.54.8.82,1.2h0l-10,22.82a0,0,0,0,0,0,0l-5.4,12.31L.41,172.74c-2.53,8.44,7.17,15.31,14.85,10l.07,0,13.62-9.17,0,0L47.25,161.2A84.23,84.23,0,0,0,57.84,166a85.67,85.67,0,0,0,88.34-17.65,52.91,52.91,0,0,1-11-10,70.76,70.76,0,0,1-80.93,9.85c-.19-.11-.38-.22-.58-.32a12,12,0,0,0-3.94-1.31,11.52,11.52,0,0,0-1.87-.15c-.33,0-.65,0-1,0a10.54,10.54,0,0,0-1.7.26,3.51,3.51,0,0,0-.54.13,3.3,3.3,0,0,0-.42.12l-.31.1-.61.22a6.64,6.64,0,0,0-.66.29,5.71,5.71,0,0,0-.55.28.72.72,0,0,0-.21.11c-.18.1-.36.2-.53.31l-.08.05a.24.24,0,0,0-.09.06.05.05,0,0,0,0,0l-.47.32h0l-12.77,8.59-7.74,5.21,0,0,3.37-7.69,7.18-16.4.26-.57a12.23,12.23,0,0,0,.9-4.62,10.69,10.69,0,0,0-.1-1.51c0-.11,0-.21,0-.32a3.11,3.11,0,0,0-.08-.44,3.93,3.93,0,0,0-.1-.5c-.07-.3-.15-.59-.24-.88,0-.12-.07-.23-.11-.34s-.07-.21-.11-.32h0a.81.81,0,0,0,0-.14,12.45,12.45,0,0,0-1.16-2.27c-.14-.22-.29-.43-.44-.64A70.93,70.93,0,1,1,147.9,48a70.29,70.29,0,0,1,5.1,9.68,52,52,0,0,1,14.17-4.44A84.13,84.13,0,0,0,162.19,43ZM24.77,143.7a.91.91,0,0,0,1.11.14c-.21.13-.43.25-.65.37-.16-.17-.32-.34-.46-.51l-.05,0c-.08-.08-.15-.17-.22-.25A3.59,3.59,0,0,0,24.77,143.7Z"/><path class="cls-1" d="M247,159.23a.06.06,0,0,0,0-.05L240.27,149l0,0-9-13.59A63.12,63.12,0,0,0,239,103.31,63.4,63.4,0,0,0,162.19,43,62.25,62.25,0,0,0,147.9,48,63.31,63.31,0,0,0,126.57,145a64.78,64.78,0,0,0,10.84,10.48,63.27,63.27,0,0,0,66.26,6.35l1-.51c.63-.32,1.26-.67,1.88-1,1.27-.71,2.51-1.46,3.72-2.26.31-.19.6-.39.89-.6h0L228,165h0l9.07,4.06,2.41,1.09C245.75,172.07,250.89,164.94,247,159.23ZM218.18,152a.67.67,0,0,0,.11-.82l.27.49C218.43,151.75,218.31,151.87,218.18,152Zm8.26,1-12.09-5.4-.42-.2a9,9,0,0,0-3.41-.69,8.2,8.2,0,0,0-1.12.07l-.24,0a3,3,0,0,0-.32.06,2.21,2.21,0,0,0-.37.07l-.65.17-.26.08-.23.08h0l-.1,0a8.6,8.6,0,0,0-1.69.84l-.48.32a52.33,52.33,0,0,1-58.87-.08,52.91,52.91,0,0,1-11-10,52.41,52.41,0,0,1,32-85.14,53.35,53.35,0,0,1,10.47-.64,52.47,52.47,0,0,1,44,77.59l-.24.43a9.28,9.28,0,0,0-1,2.91,10.49,10.49,0,0,0-.12,1.38q0,.36,0,.72a7.57,7.57,0,0,0,.18,1.26,3.23,3.23,0,0,0,.09.4,22.13,22.13,0,0,0,.16.54c.05.15.1.3.16.45a4.24,4.24,0,0,0,.21.49c.06.14.13.27.2.41a1.19,1.19,0,0,0,.08.15l.23.4a.21.21,0,0,0,0,.06s0,0,0,.06,0,0,0,0l.24.35v0l6.29,9.49,3.81,5.75v0Z"/><path class="cls-1" d="M7.25,157.16l-5.4,12.31L.41,172.74a10.81,10.81,0,0,1,.47-1.26l6-13.68C7,157.58,7.13,157.37,7.25,157.16Z"/><text class="cls-2" transform="translate(56.41 127.73)">?</text><g id="NR9iAD.tif"><path class="cls-1" d="M179.52,132.87a3.84,3.84,0,0,1-3.43,1.64,3.91,3.91,0,0,1-3.57-1.63c-.41-.6-.22-.86.5-.84,1,0,2,0,3.06,0s1.95,0,2.92,0C179.7,132,179.94,132.23,179.52,132.87Z"/><path class="cls-1" d="M171.4,125c-.68,0-1.12-.19-1.13-.94s.42-1,1.17-1q4.57,0,9.14,0c.74,0,1.21.18,1.2,1s-.54,1-1.24,1c-1.5,0-3,0-4.5,0S172.94,125,171.4,125Z"/><path class="cls-1" d="M181.78,130c0,.89-.51,1.09-1.3,1.08-1.5,0-3,0-4.51,0s-3,0-4.51,0c-.75,0-1.2-.25-1.2-1s.51-1,1.23-1q4.52,0,9,0C181.23,129,181.76,129.15,181.78,130Z"/><path class="cls-1" d="M181.78,127c0,.8-.42,1.07-1.17,1.07q-4.58,0-9.15,0c-.73,0-1.22-.22-1.2-1s.51-1,1.23-1c1.5,0,3,0,4.51,0s3,0,4.51,0C181.23,126,181.76,126.15,181.78,127Z"/><path class="cls-1" d="M174.47,107.92c-.22.19-.34.47-.2,1A1,1,0,0,1,174.47,107.92Zm0,0c.31-.27.84-.34,1.14-.71A8.26,8.26,0,0,0,174.47,107.92Zm1.15-.72h0a1.13,1.13,0,0,0,.2-.19l0-.05A1.45,1.45,0,0,0,175.62,107.2Zm.24-.24a.57.57,0,0,1,.67-.06A.43.43,0,0,0,175.86,107Zm.67-.06c.16.14.3.34.43.47A1.31,1.31,0,0,0,176.54,106.9Zm.43.47c.3.5,1.18.53,1.19,1.27C178.16,107.89,177.38,107.77,177,107.37Zm-2.5.55c-.22.19-.34.47-.2,1A1,1,0,0,1,174.47,107.92Zm1.15-.72h0a1.13,1.13,0,0,0,.2-.19l0-.05A1.45,1.45,0,0,0,175.62,107.2Zm.92-.3c.16.14.3.34.43.47A1.31,1.31,0,0,0,176.54,106.9Zm5,9.61a13.17,13.17,0,0,1-.9,1.56,2,2,0,0,1-1.85.89l.29-1.86a18.19,18.19,0,0,1-2.17.23c0,.74.13,1.67-.67,1.68-.6,0-.48-.92-.48-1.66a17.8,17.8,0,0,1-2.18-.16c0,.36.09.73.14,1.09.1.85-.18.89-.85.72a2.39,2.39,0,0,1-1.64-1.23c-.21-.41-.42-.82-.62-1.23a18.33,18.33,0,0,1-5.39-2.72,8.93,8.93,0,0,1,2.8,3.91,8.11,8.11,0,0,0,.52,1.07,5.35,5.35,0,0,0,4.36,3.05,33.17,33.17,0,0,0,5.7.07,5.9,5.9,0,0,0,5.32-3.78c.26-.56.53-1.12.76-1.69a5.63,5.63,0,0,1,2-2.48A18.27,18.27,0,0,1,181.53,116.51ZM177,107.37a1.31,1.31,0,0,0-.43-.47C176.7,107,176.84,107.24,177,107.37Zm-1.11-.41a1.45,1.45,0,0,0-.24.24h0a1.13,1.13,0,0,0,.2-.19Zm-1.39,1c-.22.19-.34.47-.2,1A1,1,0,0,1,174.47,107.92Z"/><path class="cls-1" d="M181.78,130c0,.89-.51,1.09-1.3,1.08-1.5,0-3,0-4.51,0s-3,0-4.51,0c-.75,0-1.2-.25-1.2-1s.51-1,1.23-1q4.52,0,9,0C181.23,129,181.76,129.15,181.78,130Z"/><path class="cls-1" d="M181.78,127c0,.8-.42,1.07-1.17,1.07q-4.58,0-9.15,0c-.73,0-1.22-.22-1.2-1s.51-1,1.23-1c1.5,0,3,0,4.51,0s3,0,4.51,0C181.23,126,181.76,126.15,181.78,127Z"/><path class="cls-1" d="M181.78,124.05c0,.85-.54,1-1.24,1-1.5,0-3,0-4.5,0s-3.09,0-4.64,0c-.68,0-1.12-.19-1.13-.94s.42-1,1.17-1q4.57,0,9.14,0C181.32,123,181.79,123.23,181.78,124.05Z"/><path class="cls-1" d="M179.52,132.87a3.84,3.84,0,0,1-3.43,1.64,3.91,3.91,0,0,1-3.57-1.63c-.41-.6-.22-.86.5-.84,1,0,2,0,3.06,0s1.95,0,2.92,0C179.7,132,179.94,132.23,179.52,132.87Z"/></g><path class="cls-1" d="M181,106.86h.11a.79.79,0,0,0,.79-.55C181.81,106.63,181.37,106.8,181,106.86Z"/><path class="cls-1" d="M182.26,103.66a1.76,1.76,0,0,0-2.77.73c-.27.48-.46,1-.7,1.55-.84-.34-1.27-.76-.56-1.64a4.47,4.47,0,0,0,.66-1.29,2.73,2.73,0,0,0-.76-3.36,3.76,3.76,0,0,0-3.9,0c-1.13.82-1.07,2-.75,3.11A3,3,0,0,0,174,104c.88,1,.59,1.59-.6,2.06-.22-.43-.42-.9-.69-1.33-.51-.84-1.07-1.71-2.24-1.58a2.89,2.89,0,0,0-2.37,2.07,2.5,2.5,0,0,0,.67,2.81,3.24,3.24,0,0,0,2.4,1c.74,0,1,.25,1.12.94.52,2.41.92,4.84,1.24,7.29a17.8,17.8,0,0,0,2.18.16,2.92,2.92,0,0,0,0-.42,63.66,63.66,0,0,0-1.42-7.83l0-.14c-.13-.56,0-.84.2-1s.84-.34,1.14-.71h0a1.45,1.45,0,0,1,.24-.24h0a.57.57,0,0,1,.67-.06,1.31,1.31,0,0,1,.43.47c.3.5,1.18.53,1.19,1.27a1.11,1.11,0,0,1,0,.13c-.4,2.71-.75,5.44-1.22,8.14a2.9,2.9,0,0,0,0,.42,18.19,18.19,0,0,0,2.17-.23c.4-2.54.79-5,1.15-7.52.1-.69.54-.54,1-.58a3,3,0,0,0,2.84-2.2A2.94,2.94,0,0,0,182.26,103.66Zm-12.12,2.4c0-.32.19-.74.42-.67.62.18.59.87.91,1.45C170.71,106.83,170.23,106.69,170.14,106.05Zm6.12-2.73c-.39-.64-1.17-1.2-.66-2a.88.88,0,0,1,1.19,0C177.34,102.12,176.6,102.67,176.26,103.32Zm4.86,3.54H181l-.22,0a.58.58,0,0,0,.05-.14c.1-.35.13-1,.48-1.07h0c.31,0,.51.29.55.63A.79.79,0,0,1,181.12,106.86Z"/><path class="cls-1" d="M194.32,99a18.27,18.27,0,0,1-7.63,14.87l-.07.05a18.27,18.27,0,0,1-5.09,2.53c0-.1.09-.19.13-.29a11.56,11.56,0,0,1,3.8-5A14.42,14.42,0,0,0,191,96.76a15.2,15.2,0,1,0-23.83,14.95,8.31,8.31,0,0,1,3,3.78c.14.35.3.69.46,1A18.31,18.31,0,1,1,193.32,93l0,.13c.09.24.17.48.24.73s.09.34.13.5A18.37,18.37,0,0,1,194.32,99Z"/><rect class="cls-1" x="174.4" y="69.62" width="3.24" height="8.58" rx="1.62" ry="1.62"/><rect class="cls-1" x="192.7" y="76.46" width="3.24" height="8.58" rx="1.62" ry="1.62" transform="translate(114.01 -113.76) rotate(45)"/><rect class="cls-1" x="156.1" y="76.46" width="3.24" height="8.58" rx="1.62" ry="1.62" transform="translate(-10.9 135.17) rotate(-45)"/><rect class="cls-1" x="164.29" y="72.94" width="3.24" height="5.3" rx="1.62" ry="1.62" transform="translate(-16.4 77.12) rotate(-24.97)"/><rect class="cls-1" x="184.49" y="72.94" width="3.24" height="5.3" rx="1.62" ry="1.62" transform="translate(322.91 222.7) rotate(-155.03)"/></g></g></svg>