<svg xmlns="http://www.w3.org/2000/svg" viewBox="0 0 99.14 93.29"><defs><style>.cls-1{fill:#fff;}</style></defs><title>Trust</title><g id="Layer_2" data-name="Layer 2"><g id="Layer_1-2" data-name="Layer 1"><g id="BXln6J.tif"><path class="cls-1" d="M57,25.49c.66,1.22,1.75.38.66,1.22,3-2.61,4.95-1.73,7.16,1.46,1.47-2.18,3.05-1.6,4.76-.72,2.13,1.1,4.34,2,6.5,3.07a5.94,5.94,0,0,0,6.71-.71c3.72-2.81,6-6.61,7.92-10.74.81-1.78,2-3,4.06-3,2.91,0,5.07,2.48,4.12,5.26C95.38,31.65,89.72,39.9,77.68,42.13c0,1.47,0,3,0,4.57-.09,2.3.08,4.67-2.2,6.29-.41.29-.36,1.38-.36,2.1q0,15.42,0,30.84c0,1,0,2.1-.08,3.15-.14,1.93-.84,3.52-2.9,4.08a4.58,4.58,0,0,1-5.16-2.31A10.13,10.13,0,0,1,66,86.77c-.08-9.07,0-18.15,0-27.43H62.39c0,.74-.11,1.54-.11,2.33,0,8.1,0,16.21,0,24.31a14.49,14.49,0,0,1-.52,4,4.76,4.76,0,0,1-5.07,3.25c-2-.23-3.1-1.46-3.42-4.07A27.15,27.15,0,0,1,53.07,86c0-10.58,0-21.16-.08-31.74a4.09,4.09,0,0,0-.37-2.16c-2-3-2.07-6.31-2-9.73s.09-6.75,0-10.12a2.89,2.89,0,0,0-1.15-2.06c-3.16-2-6.42-3.81-8.8-5.21l6.84-6.19"/><path class="cls-1" d="M47.12,47.56a3.52,3.52,0,0,1-.55,1.91c-1.78,2.49-1.74,5.3-1.72,8.17.06,9.52,0,19.05,0,28.58,0,.82,0,1.65,0,2.48-.17,2.65-1.25,4.07-3.33,4.4A4.78,4.78,0,0,1,36.34,90a9.93,9.93,0,0,1-.53-3.29c0-8.33,0-16.65,0-25V59.18H32.21c0,.73-.12,1.52-.12,2.31,0,8.33,0,16.65,0,25,0,3.66-1.22,5.65-3.76,6.44s-4.68-.32-5.14-3.05a25.8,25.8,0,0,1-.32-4.25c0-10.2,0-20.41-.12-30.61,0-1-.75-1.89-1.09-2.85a17,17,0,0,1-1.15-3.54c-.27-2.14-.28-4.32-.41-6.53C9.78,39.53,4.2,32.28.5,23.13c-1.15-2.86-.33-4.82,2.41-6,2.51-1.09,4-.27,5.6,2.42a111.18,111.18,0,0,0,6.54,9.83c1.66,2.2,4.13,2.26,6.53,1.18,3.14-1.4,6.24-2.9,9.43-4.4l2.09,1.77c.47-.34.91-.61,1.29-1,1.89-1.65,3.64-1.8,5.8-.19a63.35,63.35,0,0,0,7,4C47.15,36.18,47.17,41.87,47.12,47.56Z"/><path class="cls-1" d="M44.8,11.54A11.55,11.55,0,0,1,33.33,23a11.35,11.35,0,0,1-11.56-11.5A11.45,11.45,0,0,1,33.16,0,11.64,11.64,0,0,1,44.8,11.54Z"/><path class="cls-1" d="M75.95,11.46A11.29,11.29,0,0,1,64.45,23,11.56,11.56,0,0,1,52.94,11.58,11.64,11.64,0,0,1,64.55,0,11.41,11.41,0,0,1,75.95,11.46Z"/><path class="cls-1" d="M27.3,25.25c-1.62.73-3.53,1.74-5.55,2.46a4.67,4.67,0,0,1-5.65-2,3.92,3.92,0,0,1,1.08-5.2A23.29,23.29,0,0,1,20,19Z"/><path class="cls-1" d="M81.7,26.4a5.51,5.51,0,0,1-5.89.77c-1.57-.65-3.1-1.42-4.46-2,1.86-1.86,3.56-3.58,5.28-5.27.24-.24.71-.63.85-.54,1.78,1,3.81,1.79,5.19,3.21C83.86,23.74,82.93,25.39,81.7,26.4Z"/></g></g></g></svg>