<svg xmlns="http://www.w3.org/2000/svg" viewBox="0 0 143.1 150.86"><defs><style>.cls-1{fill:#fff;}</style></defs><title>Unique</title><g id="Layer_2" data-name="Layer 2"><g id="Layer_1-2" data-name="Layer 1"><g id="_5lSiAo.tif" data-name="5lSiAo.tif"><path class="cls-1" d="M75.48,82.65q0,1.28,0,2.55c0,3-.06,6-.29,9,.24-3,.33-6,.29-9Q75.47,83.93,75.48,82.65Zm-.7,15.46c-.08.64-.17,1.27-.27,1.91Q74.65,99.07,74.77,98.12ZM74.35,101q-.24,1.43-.54,2.85C74,102.9,74.19,102,74.35,101Z"/><path class="cls-1" d="M142.86,94.15c-.4,7.27-1.64,14.51-2.59,21.75a3.07,3.07,0,0,1-3.57,2.72,3.14,3.14,0,0,1-2.59-3.8c.59-4.23,1.51-8.42,1.79-12.66.53-8,.91-16,.95-24a120.15,120.15,0,0,0-1-17.32c-2.14-15.16-9.24-27.82-20.64-38A63.23,63.23,0,0,0,70.91,6.35c-20.49.34-37.15,9-50.27,24.62a15.63,15.63,0,0,1-1.14,1.34,3.08,3.08,0,0,1-4.15.17,3,3,0,0,1-.62-4.1,38.38,38.38,0,0,1,2.87-3.55C30.12,10.83,45.66,2.6,64.35.36c.86-.1,1.73-.24,2.59-.36h9.13c2.75.39,5.54.64,8.26,1.18,25,5,42.89,19.13,53.27,42.48a64.75,64.75,0,0,1,5.34,26.2C143,78,143.31,86.08,142.86,94.15Z"/><path class="cls-1" d="M102.54,89.76c-.8,14.92-3.74,29.38-10,43C90,138.17,86.92,143.3,84,148.5a12.66,12.66,0,0,1-2.31,2.36H79.9c-2.58-1.56-2.95-3.06-1.3-5.55A104.68,104.68,0,0,0,95.53,97.85c.53-5,.61-10.08.89-15.12,0-.44,0-.89,0-1.33a3.19,3.19,0,0,1,3.2-3.18,3.14,3.14,0,0,1,3.06,3.15C102.73,84.16,102.69,87,102.54,89.76Z"/><path class="cls-1" d="M108.47,129.54c-1.7,4.69-3.85,9.22-5.87,13.78-.89,2-2.75,2.69-4.44,1.82S96,142.48,97,140.59a121,121,0,0,0,11.71-38.05,144.57,144.57,0,0,0,1.12-27.18c-.24-4.59-.15-9.33-1.32-13.72-4.07-15.37-14.4-24.46-29.8-27.72a36.15,36.15,0,0,0-23.52,3c-2,1-3.85.41-4.65-1.3s0-3.42,2-4.4c26.1-12.52,58.15,3.16,63,32.53a22.67,22.67,0,0,1,.32,2.78c.18,4.71.32,9.42.48,14.13C116.41,97.42,114.2,113.77,108.47,129.54Z"/><path class="cls-1" d="M98,73.36A3.09,3.09,0,0,1,94.76,70c0-10.72-8.29-20.93-20.6-23C61.11,44.72,47,54,44.5,66.88c-.77,4-.48,8.11-.68,12.17.26,6,.24,11.88-1.15,17.72-2.82,11.86-10.43,19.35-21.51,23.69-1.64.64-3.32,1.21-5,1.73-2,.62-3.79-.24-4.29-2s.46-3.33,2.43-4.07a91.48,91.48,0,0,0,9-3.59c8.36-4.19,12.91-11.25,13.81-20.39a133.85,133.85,0,0,0,.57-19.26C36.92,56.65,49.52,44,63.52,41c15.32-3.28,31,5.26,35.92,19.89A42.93,42.93,0,0,1,101,69.72,3.08,3.08,0,0,1,98,73.36Z"/><path class="cls-1" d="M95.88,21.41c-.37,2.06-2.35,3-4.57,2.18a53,53,0,0,0-13.07-3.34C60.1,18.12,44.72,23.79,32.31,37.08A48.58,48.58,0,0,0,18.9,71.89c0,4.17.06,8.34,0,12.52A12.85,12.85,0,0,1,7.78,97.1a8.61,8.61,0,0,1-1.91.1A3.1,3.1,0,0,1,3,94.07,3.05,3.05,0,0,1,5.72,91c5-.69,6.87-2.85,6.9-7.93,0-4.37-.07-8.74,0-13.11.46-18.09,8.22-32.57,22.19-43.76A56.26,56.26,0,0,1,70,13.47a62.42,62.42,0,0,1,23.45,4.23C95.4,18.46,96.18,19.71,95.88,21.41Z"/><path class="cls-1" d="M90.11,88A3.16,3.16,0,0,1,86.8,91a3.2,3.2,0,0,1-3-3.35c-.16-5.74-.3-11.48-.49-17.22A10.33,10.33,0,0,0,72.91,60.1c-5.6,0-9.85,4.33-10,10.35-.09,2.94,0,5.89,0,10.26a63.72,63.72,0,0,1-2,18.72c-4,14.45-13.19,24.46-26.43,31-2,1-4,1.82-6.05,2.65-2.65,1.08-4.45.56-5.19-1.41s.25-3.43,2.87-4.43a51.75,51.75,0,0,0,17.26-10.45A40.74,40.74,0,0,0,56.28,89.24c.46-6.4.23-12.85.35-19.28A16.5,16.5,0,0,1,67.85,54.57,16.7,16.7,0,0,1,89.54,69.16c.38,5.43.45,10.88.64,16.33A18.66,18.66,0,0,1,90.11,88Z"/><path class="cls-1" d="M121.12,134.77c-.8,2.22-2.29,3.22-4,2.75-1.91-.52-2.72-2.36-2.08-4.46,1.58-5.2,3.34-10.36,4.63-15.63a147.66,147.66,0,0,0,3.69-41.5A112.48,112.48,0,0,0,122,60.12c-2.19-11.67-8.34-21.13-17.47-28.67-.38-.31-.78-.6-1.13-.94a3.09,3.09,0,0,1-.33-4.25,3,3,0,0,1,4.21-.6,38.5,38.5,0,0,1,3.51,2.91c11.95,11,18.28,24.67,18.6,41,.08,3.82,0,7.65,0,11.48A143.83,143.83,0,0,1,121.12,134.77Z"/><path class="cls-1" d="M75.48,82.65q0,1.28,0,2.55c0,3-.06,6-.29,9-.11,1.31-.24,2.6-.41,3.9q-.12,1-.27,1.91c-.05.32-.1.65-.16,1-.16,1-.34,1.9-.54,2.85-.07.32-.14.64-.21,1q-.21.94-.45,1.88c-.4,1.57-.86,3.13-1.39,4.68-.07.22-.15.43-.22.65q-.54,1.53-1.17,3c-.25.61-.52,1.22-.79,1.82-.44,1-.9,2-1.42,2.91a3.14,3.14,0,1,1-5.56-2.89,53.56,53.56,0,0,0,5.94-20c.52-6,.47-12,.65-18.07,0-1,0-2.06,0-3.09a3.06,3.06,0,0,1,3.08-3.24,3.12,3.12,0,0,1,3.17,3.31C75.49,78.08,75.48,80.37,75.48,82.65Z"/><path class="cls-1" d="M13.09,41.63c-1.38,3.24-2.78,6.49-3.86,9.84A64.89,64.89,0,0,0,6.3,71.76q0,4.86,0,9.71C6.28,83.61,5.06,85,3.23,85S.06,83.64,0,81.43c0-2.4,0-4.81,0-8A73.28,73.28,0,0,1,6.57,40.6c.26-.58.55-1.15.83-1.72,1.13-2.26,2.77-3,4.59-2.08S14,39.41,13.09,41.63Z"/><path class="cls-1" d="M85.5,112.57a89.08,89.08,0,0,1-10,23.93c-2.62,4.3-5.64,8.37-8.57,12.48-1.29,1.82-3.23,2.08-4.71.89s-1.59-3-.16-4.8a91.55,91.55,0,0,0,17.28-33.95c.49-1.85,1.59-2.75,3.16-2.75C84.75,108.38,86.11,110.25,85.5,112.57Z"/><path class="cls-1" d="M33.33,85.52c-.27,5.83-1.26,11.43-5.4,15.95a25.51,25.51,0,0,1-10.78,6.66c-3.1,1.08-6.26,2-9.41,2.9-2,.59-3.72-.31-4.2-2.1s.48-3.32,2.55-4c3.41-1.07,6.86-2,10.22-3.24,6.87-2.44,10.42-7.35,10.6-14.67,0-1,.09-2.06.15-3.09a3.13,3.13,0,1,1,6.26.07C33.35,84.53,33.33,85,33.33,85.52Z"/><path class="cls-1" d="M55.16,36.95c-9.11,3-18.55,17-20.38,24a71.71,71.71,0,0,0-1.42,9.56,3.29,3.29,0,0,1-2.11,3.07,3.11,3.11,0,0,1-3.52-.74c-.78-1.08-1-2.08-1-4C27.87,56.67,34.54,39,52.51,31.25c2-.84.17,1.7,1.41,3.1S57.12,36.29,55.16,36.95Z"/><path class="cls-1" d="M59.92,129.9a8.09,8.09,0,0,1-1,1.88A60.08,60.08,0,0,1,44.09,144a3.12,3.12,0,0,1-4.39-1,3,3,0,0,1,1.08-4.34,58.26,58.26,0,0,0,13.68-11.29,3,3,0,0,1,3.49-.81C59.21,127,59.86,128,59.92,129.9Z"/></g></g></g></svg>