<svg xmlns="http://www.w3.org/2000/svg" viewBox="0 0 142.48 139.68"><defs><style>.cls-1{fill:#fff;}</style></defs><title>Fiduciary</title><g id="Layer_2" data-name="Layer 2"><g id="Layer_1-2" data-name="Layer 1"><g id="_4FsYDQ.tif" data-name="4FsYDQ.tif"><path class="cls-1" d="M140.37,103.25c-15.24,22.62-41.56,36.46-73.45,36.43-24.54-.85-47.58-12.56-64.46-36-3.55-4.93-3.27-10.42.89-13.5C9,86,14.59,84.77,19.69,90.15c16.1,17,36.18,23.3,59.09,21.24,17.57-1.58,32.58-8.74,44.66-21.81,4.57-4.94,10.14-3.44,15.69.65C143.17,93.2,143.52,98.58,140.37,103.25Z"/><path class="cls-1" d="M52.55,23.29A23.25,23.25,0,1,1,29.21,0,23.3,23.3,0,0,1,52.55,23.29Z"/><path class="cls-1" d="M136.42,23.13A23.25,23.25,0,1,1,113.21,0,23.3,23.3,0,0,1,136.42,23.13Z"/></g></g></g></svg>