<svg xmlns="http://www.w3.org/2000/svg" viewBox="0 0 123.3 123.3"><defs><style>.cls-1{fill:#fff;}</style></defs><title>Phone</title><g id="Layer_2" data-name="Layer 2"><g id="Layer_1-2" data-name="Layer 1"><g id="eEp9Dd.tif"><path class="cls-1" d="M123.3,97v2.17a20.54,20.54,0,0,1-2.34,3.67c-5.47,5.57-11.06,11-16.58,16.55a12.49,12.49,0,0,1-5.14,3.2c-.87.27-1.78.45-2.67.67H93.44l-1.28-.22c-3-.47-6-.72-8.88-1.45-10.59-2.66-20-7.88-29-13.88A142,142,0,0,1,33.89,90.56a140.14,140.14,0,0,1-23.11-29A80.89,80.89,0,0,1,1.31,38.71C.79,36.43.43,34.1,0,31.79V26.73c.5-3.9,2.67-6.78,5.43-9.44,4.9-4.72,9.66-9.58,14.44-14.41A9.47,9.47,0,0,1,24.32,0H26a8.86,8.86,0,0,1,5,4.72C35.27,12.88,39.58,21,43.87,29.18c1.92,3.66,1.48,6.78-1.42,9.74-1.8,1.83-3.6,3.67-5.45,5.44a3.26,3.26,0,0,0-1,4c1.29,2.79,2.35,5.76,4,8.28C47.85,68.19,57.48,77.89,69.55,85a37.55,37.55,0,0,0,6.1,2.44,2.72,2.72,0,0,0,3-.93L85.08,80a8.32,8.32,0,0,1,10.55-1.39c7.8,4.6,15.58,9.24,23.4,13.81A9.21,9.21,0,0,1,123.3,97Z"/></g></g></g></svg>