<svg xmlns="http://www.w3.org/2000/svg" viewBox="0 0 159.27 74.02"><defs><style>.cls-1{fill:#fff;}</style></defs><title>CNN</title><g id="Layer_2" data-name="Layer 2"><g id="Layer_1-2" data-name="Layer 1"><g id="LXx5hq.tif"><path class="cls-1" d="M159.27,1q0,29.66,0,59.33c0,4.9-1.91,8.94-6.11,11.58-4.78,3-9.67,2.71-14.42-.21a18.91,18.91,0,0,1-6.38-6.81q-7.52-12.88-15-25.79a2.3,2.3,0,0,0-.59-.73V39q0,10.81,0,21.62a13.17,13.17,0,0,1-10.63,13,13.58,13.58,0,0,1-11.49-3.14,21.17,21.17,0,0,1-5-6L74.77,39a1.31,1.31,0,0,0-.49-.52v.74c0,6.57,0,13.14,0,19.71a18.47,18.47,0,0,1-.94,6.22c-1.69,4.75-5.15,7.4-10,8.27a19.5,19.5,0,0,1-3.34.27q-11.7,0-23.4,0A35.69,35.69,0,0,1,11.93,64,35.53,35.53,0,0,1,.42,42.53,36.68,36.68,0,0,1,29.1,1.07,37.44,37.44,0,0,1,36.82.28c3.62,0,7.25,0,10.88,0,.88,0,.88,0,.88.9V9.32h-.88c-4,0-8-.09-12.06,0A27.64,27.64,0,0,0,30.8,64a27.23,27.23,0,0,0,5.55.6c7.67.07,15.34,0,23,.06a5.94,5.94,0,0,0,5.87-5.91q0-21.89,0-43.77c0-.22,0-.44,0-.66,0-1.36.39-2.08,1.31-2.4A2.28,2.28,0,0,1,69.2,13c1,1.47,1.82,3,2.7,4.52l25.64,44.2a6.28,6.28,0,0,0,4.35,3.42,5,5,0,0,0,5.82-4.45c0-.39,0-.79,0-1.18q0-22.58,0-45.16c0-1.37.43-2.16,1.34-2.45A2.29,2.29,0,0,1,111.73,13c1.14,1.79,2.19,3.65,3.26,5.49q12.54,21.61,25.08,43.23A6.91,6.91,0,0,0,143,64.7a5,5,0,0,0,7.26-4.46c0-.24,0-.48,0-.73V1.24c0-1,0-1,.94-1,2.44,0,4.88,0,7.32,0C159.07.26,159.27.37,159.27,1Z"/><path class="cls-1" d="M147.22.34v.75q0,29.27,0,58.54a4.63,4.63,0,0,1,0,.79A1.94,1.94,0,0,1,144,61.73a5.61,5.61,0,0,1-1.37-1.65q-13.9-23.91-27.77-47.84a6.36,6.36,0,0,0-4-3.35,5,5,0,0,0-6.05,4.18,11.26,11.26,0,0,0-.09,1.45q0,22.48,0,45c0,.24,0,.48,0,.73a1.92,1.92,0,0,1-3.07,1.59A6,6,0,0,1,100.05,60Q86.59,36.83,73.17,13.67a20.81,20.81,0,0,0-1.94-3,5,5,0,0,0-5-1.84,4.72,4.72,0,0,0-3.81,3.43,7.07,7.07,0,0,0-.26,2.08q0,22.08,0,44.17a2.73,2.73,0,0,1-3.07,3.08H36.92a24.6,24.6,0,0,1-5.18-48.7A29.93,29.93,0,0,1,37,12.4c3.6-.08,7.21,0,10.81,0h.75v9.05h-12A15.56,15.56,0,0,0,33.8,52.26a16.23,16.23,0,0,0,3.07.3c4.46,0,8.92,0,13.38,0a2.54,2.54,0,0,0,2.87-2.88q0-18.13,0-36.26A13.25,13.25,0,0,1,62.36.61C66.91-.77,71,.25,74.78,3A20.69,20.69,0,0,1,80.24,9.4L95.09,35a1.64,1.64,0,0,0,.52.59v-.73q0-10.28,0-20.57a16.19,16.19,0,0,1,1-5.87A13,13,0,0,1,109.19,0,14.76,14.76,0,0,1,119.91,5.5a26.76,26.76,0,0,1,2.91,4.06c5,8.46,9.87,17,14.8,25.44a1.68,1.68,0,0,0,.49.59V.34Z"/></g></g></g></svg>