<svg xmlns="http://www.w3.org/2000/svg" viewBox="0 0 256.68 67"><defs><style>.cls-1{fill:#fff;}</style></defs><title>Forbes</title><g id="Layer_2" data-name="Layer 2"><g id="Layer_1-2" data-name="Layer 1"><g id="nNyy5a.tif"><path class="cls-1" d="M256.68,50.19v1.41c-.08.87-.1,1.75-.26,2.6a13.83,13.83,0,0,1-6.36,9.59,18.93,18.93,0,0,1-10.3,3c-1.13,0-2.27,0-3.4,0a35.09,35.09,0,0,1-10.07-1.25c-1.3-.32-2.57-.77-3.85-1.15a.66.66,0,0,1-.53-.74c-.08-4.15-.17-8.3-.3-12.44,0-.65.2-1,.8-1.06l.18-.06c1.27-.33,1.34-.29,1.83.91a26.7,26.7,0,0,0,4.18,7.46C231.37,61.76,234.89,63,239,62c4.76-1.21,5.66-5.84,4.52-9a5.08,5.08,0,0,0-2.37-2.7c-2-1.07-4-2-6-3-2.23-1.06-4.61-1.87-6.72-3.14a11.84,11.84,0,0,1-5.86-9.68c-.7-8,5-13.39,10.44-15.11a26,26,0,0,1,9.61-1.08,41.78,41.78,0,0,1,8.95,1.47c.65.19,1.28.46,1.93.68a.7.7,0,0,1,.54.75c.07,3.16.16,6.33.25,9.49,0,.32,0,.64,0,1s.11,1-.11,1.2a3.78,3.78,0,0,1-1.67.55c-.22,0-.61-.3-.73-.55-.49-1-.88-2.13-1.35-3.18a14.67,14.67,0,0,0-3.84-5.53,8.92,8.92,0,0,0-6.72-2.12c-2.75.25-5,2.88-5.18,5.9a6.2,6.2,0,0,0,2.92,5.76A37.28,37.28,0,0,0,244,37.15c2.38,1.11,4.77,2.2,7,3.52a10.74,10.74,0,0,1,5.25,7.13C256.49,48.59,256.57,49.4,256.68,50.19Z"/><path class="cls-1" d="M173.87,36.72a21.53,21.53,0,0,0-5.42-12.34A15.26,15.26,0,0,0,157.79,19a20.89,20.89,0,0,0-11,2,8,8,0,0,1-.8.3,5.52,5.52,0,0,1-.08-.6q0-4.88.06-9.75c0-3.44,0-6.89.05-10.33,0-.49-.14-.74-.67-.6-.14,0-.3,0-.44.06l-12.7,2.38c-1.78.34-3.55.71-5.33,1a.74.74,0,0,0-.71.85c0,1.25,0,1.25,1.18,1.55.27.07.53.15.81.19a4.26,4.26,0,0,1,3.59,3.21,17.88,17.88,0,0,1,.7,5.44c.12,4.77.22,9.54.23,14.3,0,7.34-.07,14.67-.11,22,0,.36,0,.73,0,1.09q-.09,6.12-.19,12.25c0,.34.1.5.44.56.82.16,1.62.37,2.44.51a64.29,64.29,0,0,0,10.26,1.37,48.26,48.26,0,0,0,9.65-.4,22.86,22.86,0,0,0,11.79-5.94c4.4-4.22,6.33-9.59,7-15.48A35.72,35.72,0,0,0,173.87,36.72Zm-14,8.92a31.7,31.7,0,0,1-2.58,10.9,13.38,13.38,0,0,1-3.77,5.26,7.88,7.88,0,0,1-6.62,1.35,1,1,0,0,1-.58-.71c-.12-1.64-.21-3.28-.24-4.93-.09-5.13-.14-10.26-.2-15.39h.08c0-5.43,0-10.86,0-16.29a1,1,0,0,1,.84-1.11,10.92,10.92,0,0,1,4.56-.44,7.62,7.62,0,0,1,4.81,3,17.59,17.59,0,0,1,3.18,7.33A38.93,38.93,0,0,1,159.82,45.64Z"/><path class="cls-1" d="M51,20c-1.57.46-1.67.42-2.26-1.11A34.25,34.25,0,0,0,45.43,12,12.12,12.12,0,0,0,35.19,6.16c-3.49-.07-7,0-10.46-.06l-.44,0c-.07,1-.19,1.86-.21,2.78q-.17,6.25-.29,12.51c-.06,3.14-.05,6.29-.11,9.43,0,.61.16.83.79.79,2.3-.12,4.62-.13,6.91-.32a5.72,5.72,0,0,0,4.41-3,14.76,14.76,0,0,0,1.81-4.9c.12-.55.34-.82.92-.79s.9,0,1.35,0c.85,0,.85,0,.85.82q0,3.4,0,6.8c0,4.53,0,9.07,0,13.6,0,.61-.16.87-.79.78-.34-.05-.68,0-1-.06-1.15-.11-1.11-.13-1.44-1.27a27.85,27.85,0,0,0-1.22-3.56,6.1,6.1,0,0,0-5.71-4c-2.07-.06-4.14-.17-6.21-.28-.51,0-.67.15-.66.65.13,4.57.17,9.15.38,13.72.11,2.4.49,4.79.76,7.18a5.74,5.74,0,0,0,.26,1,5.54,5.54,0,0,0,5.06,4.39c.93.09,1.84.35,2.77.48a.75.75,0,0,1,.72.75,11.57,11.57,0,0,1,0,1.54.52.52,0,0,1-.59.53c-.88,0-1.75.07-2.63.07H3.17c-.81,0-1.62-.06-2.44-.06-.42,0-.59-.14-.64-.58C-.15,63.23,0,63,1.86,62.66c.56-.11,1.12-.25,1.69-.34a5.4,5.4,0,0,0,4.42-4A20.71,20.71,0,0,0,9,52q.27-12.86.38-25.72c0-3.48-.07-7-.27-10.45a42,42,0,0,0-.89-6.45,5.5,5.5,0,0,0-3.8-4.53,15.73,15.73,0,0,0-2.69-.54C.17,4.18.16,4.21.11,2.69c0-.06,0-.13,0-.19C0,1.18,0,1.15,1.41,1.14c8.41,0,16.81-.07,25.22-.06,8.21,0,16.43.05,24.64.08.86,0,.89,0,.91.91q.14,7,.27,13.92c0,.66,0,1.33,0,2C52.53,19.54,52.53,19.54,51,20Z"/><path class="cls-1" d="M89.51,32.36c-2-6-5.84-10.39-11.88-12.61a25.53,25.53,0,0,0-13.12-1.11C57,19.87,51.62,24,48.24,30.77a25.8,25.8,0,0,0-2.44,10.52,31.54,31.54,0,0,0,1.58,11.79,19.69,19.69,0,0,0,9.41,11.38A21.84,21.84,0,0,0,67.91,67a46.44,46.44,0,0,0,5-.44A20.85,20.85,0,0,0,88.27,55.18,25.8,25.8,0,0,0,91,44.48,32,32,0,0,0,89.51,32.36ZM76.85,45.57a41.73,41.73,0,0,1-1.36,11.09,11.05,11.05,0,0,1-3.13,5.49,5.26,5.26,0,0,1-7.12.08,11.35,11.35,0,0,1-3.15-5,32.09,32.09,0,0,1-1.94-10c-.05-1.71,0-3.42,0-5.13h-.3c.23-3.15.37-6.31.72-9.45a19.24,19.24,0,0,1,2.37-7.72,5.71,5.71,0,0,1,3.91-3.06,5.14,5.14,0,0,1,4.5,1.1,13.1,13.1,0,0,1,3.77,5.93,30.35,30.35,0,0,1,1.54,8.34C76.76,40,76.89,42.8,76.85,45.57Z"/><path class="cls-1" d="M192.15,40.77c2.57,0,5.13,0,7.7-.05l18.29-.06H219c-.07-1.36-.09-2.6-.2-3.83a26.07,26.07,0,0,0-2.19-8.64,15.88,15.88,0,0,0-10.31-9.13,22.11,22.11,0,0,0-10.65-.29,20.57,20.57,0,0,0-14.23,10,24.9,24.9,0,0,0-3.52,11.65,32.77,32.77,0,0,0,.56,9.11,22.27,22.27,0,0,0,7.35,12.34,21.59,21.59,0,0,0,13.73,5,22.8,22.8,0,0,0,14.28-4,17.86,17.86,0,0,0,4.14-3.9c.47-.63.34-1-.29-1.8-.47-.58-.9-.37-1.39-.09a33.58,33.58,0,0,1-3.09,1.69,16.36,16.36,0,0,1-8.37,1c-5.11-.53-8.6-3.38-10.93-7.79a23.59,23.59,0,0,1-2.3-10.6C191.56,40.9,191.71,40.77,192.15,40.77ZM192,33.61a24.27,24.27,0,0,1,2.21-7.52,12.64,12.64,0,0,1,1.65-2.5,4.26,4.26,0,0,1,4.54-1.66,3.87,3.87,0,0,1,2.54,2.38,22,22,0,0,1,1.49,4.6c.4,2.35.5,4.75.73,7.13,0,.44-.11.59-.57.6-4.12.09-8.25.2-12.37.29a4.5,4.5,0,0,1-.57-.08C191.73,35.75,191.8,34.68,192,33.61Z"/><path class="cls-1" d="M128.9,21Q127,26.23,125,31.4c-.35.91-.37.92-1.28.51a18.45,18.45,0,0,0-4.94-1.71,10.57,10.57,0,0,0-6.58,1.09,2.31,2.31,0,0,0-1.34,2.21c0,4.77-.14,9.54-.09,14.31,0,3.29.3,6.57.49,9.86a8.74,8.74,0,0,0,.32,1.69c.58,2.19,1.6,3,3.91,3.32.87.1,1.74.21,2.61.29.47,0,.69.25.66.73a11.49,11.49,0,0,0,0,1.41c0,.54-.22.64-.69.64-2.52,0-5,.05-7.57.05q-7.67,0-15.34,0c-1.11,0-2.22-.09-3.34-.07-.53,0-.68-.23-.67-.68s0-1.07.06-1.6a.6.6,0,0,1,.37-.39c.53-.15,1.08-.25,1.62-.35A4.32,4.32,0,0,0,97,58.5c.23-3.09.43-6.18.48-9.28q.12-6.58,0-13.16c0-2.41-.29-4.81-.48-7.22a5.65,5.65,0,0,0-.34-1.36,3.59,3.59,0,0,0-3-2.61c-.69-.12-1.38-.28-2.07-.39a.66.66,0,0,1-.64-.73c0-.17,0-.34,0-.51-.06-.67.25-1,.92-1.13,2.7-.53,5.38-1.12,8.08-1.66,3.45-.68,6.91-1.34,10.36-2,.24,0,.5,0,.81-.08l-.33,9.45.13.06c.14-.22.3-.42.42-.65a19.68,19.68,0,0,1,4.74-6.08,12.23,12.23,0,0,1,11.35-2.51l.25.07C129.34,19.24,129.48,19.49,128.9,21Z"/></g></g></g></svg>