<svg xmlns="http://www.w3.org/2000/svg" viewBox="0 0 154.56 74.85"><defs><style>.cls-1{fill:#fff;}</style></defs><title>Fox</title><g id="Layer_2" data-name="Layer 2"><g id="Layer_1-2" data-name="Layer 1"><g id="jMaRN5.tif"><path class="cls-1" d="M20.58,70a18.92,18.92,0,0,0-1.51-3.79A8.77,8.77,0,0,0,20,64.64a4.46,4.46,0,0,0-4.22-6.22c-5-.06-10,0-15,0a6.14,6.14,0,0,0-.83.13V74.85H17.15C19.74,73.69,20.94,72.18,20.58,70ZM4,62.38a6.63,6.63,0,0,1,.9-.12c3.42,0,6.84,0,10.25,0,1,0,1.41.33,1.4,1.32s-.54,1.19-1.41,1.18c-3.42,0-6.84,0-10.25,0-.27,0-.54,0-.89-.07ZM15.81,71c-3.73,0-7.46,0-11.2,0-.23,0-.6-.43-.66-.71a8.68,8.68,0,0,1,0-1.72c4.12,0,8,0,12,0,.81,0,1,.62.95,1.27S16.62,71,15.81,71Z"/><path class="cls-1" d="M129.51,74.67a2.68,2.68,0,0,0-.31.18H114V71.08c.55,0,1-.07,1.47-.07,4,0,8,0,11.94,0,.9,0,1.59-.08,1.59-1.25s-.71-1.25-1.61-1.24q-4.65,0-9.29,0a4.73,4.73,0,0,1-4.85-5,4.74,4.74,0,0,1,4.78-5.1c4.62,0,9.24,0,14,0V62.2c-.38,0-.8.06-1.22.06-4.06,0-8.13,0-12.19,0-.9,0-1.48.18-1.47,1.23s.58,1.24,1.48,1.23c3,0,6,0,9,0,2.84,0,4.64,1.4,5.11,3.95A5.13,5.13,0,0,1,129.51,74.67Z"/><path class="cls-1" d="M61.64,74.66a2.08,2.08,0,0,0-.3.19H46.13V71.08c.49,0,.91-.07,1.33-.07,4,0,8,0,12.07,0,.91,0,1.59-.1,1.58-1.26s-.73-1.24-1.62-1.23q-4.64,0-9.29,0a4.71,4.71,0,0,1-4.84-5,4.72,4.72,0,0,1,4.78-5.09c4.39,0,8.77,0,13.16,0,.24,0,.47,0,.8.07v3.71c-.42,0-.84.06-1.27.06-4,0-8,0-12.07,0-.94,0-1.57.15-1.55,1.29s.67,1.19,1.54,1.18c3,0,6,0,8.93,0s4.64,1.35,5.14,3.91A5.1,5.1,0,0,1,61.64,74.66Z"/><path class="cls-1" d="M154.56,69.06v1.45a5.82,5.82,0,0,1-3.62,4.35H135.72c0-.92,0-1.85-.06-2.77s.27-1.1,1.1-1.09c4.14,0,8.29,0,12.43,0,.93,0,1.46-.25,1.45-1.28s-.52-1.23-1.39-1.22c-3.06,0-6.11,0-9.17,0a4.56,4.56,0,0,1-4.64-2.6,5.39,5.39,0,0,1,.48-5.72,3.92,3.92,0,0,1,3.26-1.8c4.7,0,9.41,0,14.12,0,.07,0,.14.06.29.13v3.69h-1.31c-4,0-8,0-12.07,0-.9,0-1.5.18-1.5,1.22s.54,1.26,1.47,1.25c3,0,6,0,8.93,0s4.45,1.08,5.26,4.05A1.44,1.44,0,0,0,154.56,69.06Z"/><polygon class="cls-1" points="97.18 62.21 97.18 64.66 109.77 64.66 109.77 68.47 97.19 68.47 97.19 70.95 110.61 70.95 110.61 74.85 93.22 74.85 93.22 58.5 110.69 58.5 110.69 62.21 97.18 62.21"/><path class="cls-1" d="M90.8,58.51V74.85H86.94L77.38,64.08l-.34.11V74.85H73.17V58.42c1.31,0,2.46-.06,3.6,0,.36,0,.74.44,1,.75q4,4.43,8,8.89c.29.32.59.64,1.12,1.2V58.51Z"/><path class="cls-1" d="M39.36,74.85h-13c-2.65-1-3.7-3-3.65-5.74.07-3.49,0-7,0-10.6h3.85v1.33c0,3.14,0,6.28,0,9.42,0,1.61.14,1.74,1.7,1.75h9.05c1.55,0,1.7-.14,1.71-1.74,0-3.14,0-6.28,0-9.42V58.48h3.79c0,.49.06.92.06,1.35,0,3-.08,6,0,8.93C43,71.57,42,73.69,39.36,74.85Z"/><path class="cls-1" d="M70.76,58.5V74.85H66.9q0-7.42.06-14.83c0-.48,0-1,0-1.52Z"/><path class="cls-1" d="M81.56,9.77c-10.78-12.9-32-13.05-43-.31a23.19,23.19,0,0,0,.7,31.6,27.7,27.7,0,0,0,20.08,8.72A29.29,29.29,0,0,0,77,44.22C88.47,35.88,90.49,20.46,81.56,9.77ZM64.65,34.84c0,3-1,4-4,4.12a11.9,11.9,0,0,1-1.69,0c-2.67-.22-3.49-1.14-3.49-3.82V25c0-3.58,0-7.15,0-10.73,0-2.36,1.15-3.68,3.49-3.92a10.72,10.72,0,0,1,2.52,0A3.31,3.31,0,0,1,64.65,14Q64.67,24.41,64.65,34.84Z"/><path class="cls-1" d="M128.26,49.41c-.46,0-.79.09-1.12.09-5.19,0-10.38,0-15.57,0a1.71,1.71,0,0,1-1.64-.92c-1.91-2.93-3.86-5.84-5.8-8.75-.24-.36-.49-.7-.84-1.2l-3.94,6c-.93,1.41-1.84,2.84-2.81,4.22a1.54,1.54,0,0,1-1,.64c-5.51,0-11,0-16.74,0,.29-.51.49-.89.71-1.25,4.88-7.86,9.74-15.73,14.66-23.57a1.78,1.78,0,0,0,0-2.25c-4.56-7-9.07-14.06-13.59-21.1-.19-.3-.36-.61-.65-1.1.54,0,1-.07,1.36-.07,5,0,9.9,0,14.85,0a1.82,1.82,0,0,1,1.83,1c1.63,2.77,3.34,5.5,5,8.24.21.34.44.66.77,1.16l2-3.69c1.07-2,2.11-4,3.23-5.94A1.54,1.54,0,0,1,110,.2c5.51,0,11,0,16.54,0a1.5,1.5,0,0,1,.4.15c-.24.41-.45.78-.68,1.14q-6.88,10.64-13.78,21.27a1.58,1.58,0,0,0,0,2Q120,36.38,127.4,48C127.66,48.43,127.91,48.84,128.26,49.41Z"/><polygon class="cls-1" points="14.86 13.73 14.86 20.26 30.42 20.26 30.42 34.04 14.65 34.04 14.65 49.42 0.13 49.42 0.13 0.52 32.97 0.52 32.97 13.73 14.86 13.73"/><path class="cls-1" d="M153.74,55.65c-2.21,0-4.28,0-6.34,0-.22,0-.51-.64-.62-1Q143.44,43.3,140.13,32L131.21,1.71c-.14-.45-.24-.92-.38-1.47h15.57C148.84,18.69,151.27,37.06,153.74,55.65Z"/><path class="cls-1" d="M144.73,55.67c-2.8,0-5.37,0-7.93,0-.38,0-.85-.53-1.09-.93-6.18-9.84-12.32-19.71-18.55-29.52a2.62,2.62,0,0,1,0-3.46c3-4.35,5.91-8.82,8.84-13.24.28-.43.57-.84,1-1.49Z"/><path class="cls-1" d="M131.93,55.62H.06V52.49H1.69q63.21,0,126.42,0c1.44,0,2.36.35,2.92,1.68A13,13,0,0,0,131.93,55.62Z"/></g></g></g></svg>