<svg xmlns="http://www.w3.org/2000/svg" viewBox="0 0 129.93 78.34"><defs><style>.cls-1{fill:#fff;}</style></defs><title>WSJ</title><g id="Layer_2" data-name="Layer 2"><g id="Layer_1-2" data-name="Layer 1"><g id="BY57AU.tif"><path class="cls-1" d="M70.07,73.8c-.3.33-.58.51-.64.74-.1.42,0,.9-.12,1.31s-.39.51-.59.77a2.82,2.82,0,0,1-.55-.71,4,4,0,0,1-.12-1.07c-.09-1.56-.1-3.14-.27-4.69-.2-1.83-1.49-2.76-3.31-3.32l1.18-.51A5.16,5.16,0,0,0,69,60.56a4.52,4.52,0,0,0-4.48-4.39c-3.92-.23-7.86-.06-12-.06.18.25.32.63.48.64,1.21,0,1.31.84,1.31,1.75,0,5.11,0,10.22,0,15.33a6,6,0,0,1-.38,1.87,2.24,2.24,0,0,1-2.21,1.56A2.16,2.16,0,0,1,49.46,76,6.27,6.27,0,0,1,49,73.64c0-5.11,0-10.22,0-15.33,0-.79.09-1.46,1.1-1.54.15,0,.28-.29.42-.45-.17-.13-.34-.36-.51-.36q-2.72,0-5.43,0c-.15,0-.35.25-.43.43s.22.37.35.37c1.55,0,1.45,1,1.45,2.08,0,4.83,0,9.66,0,14.49A4.62,4.62,0,0,0,49.2,78l1.24.38h1.45c2.79-.7,3.46-2.74,3.44-5.3,0-4.75,0-9.5,0-14.24,0-1.74.35-2,2-2,1.12,0,1.54.5,1.54,1.51q0,8.69,0,17.38c0,.91-.28,1.56-1.35,1.63-.22,0-.43.33-.9.73h7l.14-.29c-.25-.15-.5-.41-.76-.44-.72-.07-1.15-.41-1.16-1.13,0-2.93,0-5.86,0-8.76,1.82-.37,2.69.11,2.9,1.79.24,1.95.3,3.92.43,5.89a3.29,3.29,0,0,0,2.16,3.27h1C70.16,77.31,70.48,76.54,70.07,73.8Zm-8.21-7.64V57c2.32-.35,3.6.52,3.91,3a12.37,12.37,0,0,1-.26,4.16C65.12,65.85,63.88,66.46,61.86,66.16Z"/><path class="cls-1" d="M42.22,58.46c-1.2-2.1-3-3-5-2.54a5,5,0,0,0-3.41,3.31,21.71,21.71,0,0,0-.54,13.94c.64,2.4,1.84,4.33,4.34,5.17h1a5.91,5.91,0,0,0,4.45-4.76A41.12,41.12,0,0,0,44,65.86,13.91,13.91,0,0,0,42.22,58.46ZM40.58,74.29a4.74,4.74,0,0,1-.29,1.41,2.1,2.1,0,0,1-2.1,1.65,2,2,0,0,1-2-1.72,19.74,19.74,0,0,1-.41-3.21c-.07-1.77,0-3.53,0-5.3h.17c0-2.53,0-5.05,0-7.58a2.61,2.61,0,0,1,.42-1.59,3.14,3.14,0,0,1,1.86-1.19,2.57,2.57,0,0,1,1.86,1.15,5.54,5.54,0,0,1,.6,2.66C40.69,65.14,40.63,69.72,40.58,74.29Z"/><path class="cls-1" d="M32.49,56.34c-.15.14-.3.42-.45.42-1.29,0-1.35.91-1.35,1.84V72.25c0,4.2-.49,4.88-4.4,6.1h-1a4.5,4.5,0,0,1-3.51-4.08A3.16,3.16,0,0,1,22,72.4a3,3,0,0,1,1.71-1.2c.34-.08,1.21.61,1.23,1a5,5,0,0,1-.59,2.18c-.11.25-.61.32-.93.47a2.27,2.27,0,0,0,2.46,2.43,1.54,1.54,0,0,0,1.6-1.34,12.25,12.25,0,0,0,.24-2.15c0-5,0-10.06,0-15.09,0-1,0-1.92-1.39-1.91-.14,0-.28-.29-.43-.44.17-.13.35-.35.52-.36q2.78,0,5.55,0C32.17,56,32.33,56.21,32.49,56.34Z"/><path class="cls-1" d="M104.94,70.5c-.05.57-.11,1.15-.15,1.73-.22,3.72-2.13,5.44-5.36,4.74v-19c0-.73.37-1.07,1.09-1.17.25,0,.46-.34.69-.51l-.17-.31c-1.93,0-3.85,0-5.78,0-.21,0-.42.23-.64.36.22.16.43.43.66.46A1.06,1.06,0,0,1,96.37,58q0,9,0,18.1c0,.81-.43,1.15-1.19,1.21-1.11.08-1.64-.42-2-2C92,69.12,90.75,62.95,89.57,56.76c-.19-1-.6-1.21-1.62-.92-.34,1.74-.69,3.46-1,5.19q-1.41,7.26-2.81,14.51c-.17.89-.45,1.62-1.52,1.74-.21,0-.38.37-.8.8h4.34a4.11,4.11,0,0,0,.57-.07,1.48,1.48,0,0,0-.65-.8c-.29-.23-.82-.52-.8-.73a27.53,27.53,0,0,1,.6-3.42c0-.15.44-.28.69-.31,3-.29,3-.29,3.59,2.61,0,.16.11.31.13.46.1.72-.06,1.26-.91,1.41-.29.05-.55.33-.82.51l.17.27H105.4V70.53ZM86,71.72l1.62-9.52h.32l1.63,9.53Z"/><path class="cls-1" d="M39.12,42.37c-.09.9-.18,1.67-.26,2.44-.36,3.42-2.26,4.91-5.34,4.13,0-6.3,0-12.61,0-18.92,0-.41.65-.82,1-1.21a4.79,4.79,0,0,1,.65-.48c-.21-.12-.43-.35-.64-.36-1.77,0-3.54,0-5.31,0-.21,0-.42.35-.79.69,1.92.25,2.06.4,2.06,2,0,.85,0,1.69,0,2.53,0,4.79,0,9.58,0,14.37,0,1.43-.92,2.15-2,1.53a2.49,2.49,0,0,1-1-1.49c-.55-2.38-1-4.78-1.48-7.18-.8-4-1.58-7.93-2.43-11.88a1.32,1.32,0,0,0-.87-.78c-.19,0-.59.45-.75.78a4.69,4.69,0,0,0-.26,1.17Q20,38.68,18.3,47.59c-.17.85-.48,1.63-1.56,1.72-.22,0-.42.28-.62.43l.13.22h4.81c-.18-.3-.25-.58-.36-.59-1.55-.16-1.31-1.21-1.13-2.23.14-.78.31-1.56.48-2.35h3.78c.19,1,.38,1.86.53,2.77s.13,1.64-1.06,1.72c-.2,0-.39.25-.58.38l.12.31h16.8C40,47.17,39.81,43,39.12,42.37Zm-19,1.37,1.58-9.41.34,0,1.63,9.42Z"/><path class="cls-1" d="M19.57,28.4c-.16.13-.32.37-.49.38-1.15.06-1.43.88-1.63,1.78q-1.52,7.24-3,14.48-.45,2.18-.93,4.35c-.2.91-.21.9-1.39.78-.81-4-1.63-8.1-2.45-12.17l-.23,0c-.75,3.71-1.49,7.42-2.27,11.13-.08.39-.26.94-.55,1.08-.56.27-.94-.06-1.07-.72Q3.75,40.3,1.91,31.1c-.21-1-.17-2.28-1.72-2.35-.07,0-.15-.17-.18-.28A2.49,2.49,0,0,1,0,28c1.76,0,3.44,0,5.13,0,.25,0,.5.25.75.38a2.57,2.57,0,0,1-.56.45c-1.07.43-.59,1.31-.5,2,.22,1.58.58,3.15.88,4.73l1.49,7.9a23.7,23.7,0,0,0,.83-13.34c-.14-.49-.69-.85-1.05-1.28-.11-.14-.34-.35-.3-.41S7,28,7.19,28q2.41,0,4.83,0c.16,0,.32.25.48.38-.14.15-.26.41-.42.43-1,.17-1,.84-.9,1.62q1.17,6.08,2.35,12.16a5.1,5.1,0,0,0,.34.78c.81-4.43,1.58-8.58,2.31-12.74.15-.88.15-1.74-1.1-1.84-.14,0-.26-.31-.39-.47.18-.11.36-.32.55-.32,1.25,0,2.49,0,3.74,0C19.18,28,19.37,28.26,19.57,28.4Z"/><path class="cls-1" d="M69,21.91H62.33c.05-.23.05-.36.09-.38,1.79-.64,1.79-.64,1.79-2.66V11.42H59.3c0,3,0,5.91,0,8.84,0,.37.66.74,1,1.07a3.93,3.93,0,0,0,.71.4L61,22H54.47l-.11-.24c.18-.13.34-.34.53-.36,1.09-.12,1.36-.78,1.36-1.76,0-5.67,0-11.35,0-17,0-1.35-.53-1.91-1.91-2.15.23-.15.46-.42.7-.43,1.77,0,3.54,0,5.31,0,.22,0,.43.22.65.34a4.63,4.63,0,0,0-.65.45c-.38.37-1,.77-1.05,1.17-.1,2.65-.05,5.3-.05,8.06h4.91c0-2.69,0-5.34,0-8A1.16,1.16,0,0,0,63,.79c-.21,0-.42-.23-.63-.36.2-.14.39-.41.59-.41q2.71,0,5.43,0c.19,0,.38.27.58.42-.17.12-.34.34-.51.34-1,0-1.29.57-1.29,1.39q0,8.87,0,17.74a1.29,1.29,0,0,0,1.28,1.45C68.65,21.4,68.84,21.57,69,21.91Z"/><path class="cls-1" d="M93.58,46.27c-.08-.17-.47-.2-.87-.36a8.39,8.39,0,0,1,0,1.77c-.08.35-.44.64-.68,1-.18-.32-.48-.63-.51-1q-.2-2-.25-4.09c-.07-2.68-.76-3.7-3.38-4.73.69-.32,1.28-.56,1.84-.85a5.08,5.08,0,0,0,2.59-5.38c-.3-2.36-1.58-4.08-3.82-4.36A73.18,73.18,0,0,0,80.91,28c-.18,0-.36.22-.54.34.18.16.35.46.53.46,1,0,1.25.55,1.25,1.4q0,8.86,0,17.73c0,.79-.27,1.3-1.14,1.4-.25,0-.47.29-.71.44l.16.23H87l.11-.28c-.25-.14-.49-.37-.74-.39-.92-.07-1.24-.56-1.21-1.43s0-1.93,0-2.89V39.26c2.07-.1,2.83.55,3,2.43.1,1.4.12,2.81.24,4.21a12,12,0,0,0,.46,2.71,2.4,2.4,0,0,0,3.53,1.33A3.75,3.75,0,0,0,93.58,46.27Zm-8.39-8.06V29a2.79,2.79,0,0,1,3.74,2,8.66,8.66,0,0,1-.14,5.43C88.27,37.95,87.24,38.43,85.19,38.21Z"/><path class="cls-1" d="M117.17,50.07H106.05l-.12-.31c.23-.16.44-.42.68-.45A1.13,1.13,0,0,0,107.72,48q0-9,0-18a1.1,1.1,0,0,0-1.26-1.26c-.15,0-.3-.26-.46-.4.15-.14.3-.4.46-.4,3.57,0,7.14,0,10.81,0,0,2.63.13,5.11-.07,7.58l-.48,0c-.1-.72-.23-1.44-.3-2.17-.39-3.56-1.88-4.79-5.53-4.43v9a1.63,1.63,0,0,0,2.1-1.36c.25-.9.35-1.85.53-2.83.71.56.86,8.36.19,9.69-.95-1.5.2-4.35-2.86-4.37V49c2.06.53,3.75.14,4.51-1.43a34.16,34.16,0,0,0,1.55-4.82C117.36,43,117.59,47,117.17,50.07Z"/><path class="cls-1" d="M105.05,50H94l-.16-.23c.23-.16.44-.41.7-.47a1.22,1.22,0,0,0,1.06-1.37q0-8.87,0-17.74c0-.75-.17-1.35-1.1-1.42-.22,0-.43-.3-.64-.46a2.33,2.33,0,0,1,.78-.35c2.17,0,4.34,0,6.52,0,1,0,2.1-.05,3.13,0,.3,0,.81.43.82.67.07,2.13,0,4.26,0,6.39,0,.18-.19.36-.45.83-.14-.58-.23-.85-.27-1.13-.12-.83-.15-1.68-.34-2.49-.68-2.83-2.3-3.8-5.33-3.2v9a1.71,1.71,0,0,0,2.16-1.48c.23-.87.33-1.79.48-2.69l.38,0v9.39l-.26.08a6.76,6.76,0,0,1-.32-.92,14.61,14.61,0,0,0-.35-2,1.64,1.64,0,0,0-2.13-1.22v9.82c5.16.76,5.37-3,5.86-6.61C105.24,43.15,105.42,47.38,105.05,50Z"/><path class="cls-1" d="M81.09,22H69.83l-.1-.27a3,3,0,0,1,.72-.37A1.19,1.19,0,0,0,71.52,20q0-8.93,0-17.87c0-.78-.25-1.32-1.16-1.35-.19,0-.38-.26-.57-.4.21-.13.42-.37.63-.37,3.5,0,7,0,10.58,0V7.5l-.23.12c-.12-.2-.32-.39-.36-.6-.14-.87-.15-1.77-.35-2.63-.68-2.91-2.2-3.83-5.42-3.34v9c1.42.13,2.08-.4,2.35-1.92.1-.55.08-1.13.17-1.68,0-.2.23-.37.57-.46v9.39l-.31.1c-.79-1.49.16-4.21-2.8-4.33v9.93c1.82.26,3.64.31,4.55-1.54a32,32,0,0,0,1.54-4.83l.3-.07C81.18,17,81,19.5,81.09,22Z"/><path class="cls-1" d="M83.15,56.29c-.13.16-.25.46-.4.47-1.38.1-1.42,1.06-1.42,2.08q0,9.05,0,18.1v1c-1.06.43-1.24-.27-1.5-.92-2.1-5.28-4.21-10.56-6.51-15.84,0,.32-.08.64-.08,1q0,6.4,0,12.79c0,1.11,0,2.26,1.54,2.37.12,0,.21.34.41.71h-5c.32-.37.47-.71.65-.72,1.27-.12,1.41-1,1.41-2q0-6.1,0-12.19,0-2.42,0-4.83c0-.84-.18-1.53-1.25-1.54-.19,0-.38-.28-.57-.43.21-.13.41-.37.62-.38a17.14,17.14,0,0,1,3,0c.36.05.79.58,1,1,1.63,4,3.21,8,4.81,12.05a1.56,1.56,0,0,0,.57.78V61.18c0-.85,0-1.69,0-2.54s-.19-1.77-1.38-1.88c-.17,0-.32-.26-.49-.39.19-.14.38-.41.58-.42,1.16,0,2.33,0,3.5,0C82.79,56,83,56.17,83.15,56.29Z"/><path class="cls-1" d="M79.6,29c-.06,1.89,0,3.78,0,5.67a1.6,1.6,0,0,1-.41.93c-.83-2.51-.26-5.72-3.94-6.95v1.75c0,5.55,0,11.1,0,16.65,0,1.19-.07,2.34,1.62,2.32.09,0,.18.28.41.64H70.39l-.15-.25c.24-.16.47-.41.74-.45a1.26,1.26,0,0,0,1.21-1.38q0-9.29,0-18.59a1.45,1.45,0,0,0-.11-.37,1.74,1.74,0,0,0-2.13,1.13c-.55,1.48-.88,3-1.31,4.58-.09.32-.19.63-.29.95L68,35.55V28.08a5.61,5.61,0,0,1,.83-.11c3.22,0,6.44,0,9.65,0C79.29,27.93,79.62,28.14,79.6,29Z"/><path class="cls-1" d="M54,0v7.5l-.24.11a4.2,4.2,0,0,1-.35-.71c-.45-1.57-.79-3.18-1.34-4.71A1.83,1.83,0,0,0,49.69,1V2.72c0,5.47,0,10.94,0,16.41,0,1.22,0,2.31,1.66,2.28.1,0,.2.26.4.55H44.91l-.13-.19a2.16,2.16,0,0,1,.66-.4A1.25,1.25,0,0,0,46.62,20q0-9.29,0-18.58a2,2,0,0,0-.1-.41,1.67,1.67,0,0,0-2,.93C44,3.44,43.59,5,43.13,6.59a8.07,8.07,0,0,1-.42,1,3.4,3.4,0,0,1-.35-1c0-1.85-.05-3.7,0-5.55,0-.34.42-1,.65-1C46.63,0,50.25,0,54,0Z"/><path class="cls-1" d="M129.92,35a2.32,2.32,0,0,1-.13.54l-.32.06c-.09-.34-.2-.68-.28-1-.34-1.35-.64-2.71-1-4a2,2,0,0,0-.77-1.05,6.75,6.75,0,0,0-1.52-.56,5.35,5.35,0,0,0-.33,1.29c0,5.59,0,11.19,0,16.78,0,1.19,0,2.34,1.65,2.34.09,0,.21.12.25.21a1.36,1.36,0,0,1,0,.44h-6.58l-.18-.21c.22-.16.44-.43.68-.46A1.23,1.23,0,0,0,122.57,48q0-9.36,0-18.71c0-.07-.07-.14-.14-.26a1.81,1.81,0,0,0-2.17,1.25c-.54,1.44-.83,3-1.23,4.48-.08.3-.17.61-.26.91l-.33-.07V28.06h11.51C129.93,30.44,129.93,32.73,129.92,35Z"/><path class="cls-1" d="M67.83,44.89c-.09,4.49-4.21,6.85-8.15,4.61-.27-.15-.56-.29-.83-.44l-1,1.28V42.6l.32-.07c.09.31.2.61.27.92a20.52,20.52,0,0,0,.73,3.25,3.6,3.6,0,0,0,4.5,2.42c1.49-.48,2.2-2.39,1.71-4.53s-2.15-3.7-3.88-5-3.52-3-3.82-5.47a8.34,8.34,0,0,1,.27-3.42c1-3.26,4.76-3.31,6.81-2.18.28.15.53.35.8.54l1-1.23v7.75l-.3.08c-.09-.33-.2-.65-.27-1A22,22,0,0,0,65.17,31a4.24,4.24,0,0,0-1.69-1.92,2.26,2.26,0,0,0-2.8.22A3.3,3.3,0,0,0,60,32.9c.5,1.78,2,2.77,3.36,3.8C66.1,38.76,67.9,41.27,67.83,44.89Z"/><path class="cls-1" d="M51.22,50h-11l-.13-.23c.22-.15.44-.43.67-.44,1,0,1.42-.57,1.42-1.54q0-8.75,0-17.49c0-.85-.23-1.51-1.28-1.52-.19,0-.37-.27-.55-.42.2-.13.4-.38.6-.38q2.65,0,5.31,0c.21,0,.41.26.61.4-.19.14-.38.39-.58.41a1.14,1.14,0,0,0-1.14,1.28c0,6.31,0,12.61,0,19,5.33.69,5.09-3.27,5.61-6.55C51.4,43,51.63,47.19,51.22,50Z"/></g></g></g></svg>