<svg xmlns="http://www.w3.org/2000/svg" viewBox="0 0 92.09 83.85"><defs><style>.cls-1{fill:#fff;}</style></defs><title>Learn</title><g id="Layer_2" data-name="Layer 2"><g id="Layer_1-2" data-name="Layer 1"><g id="TrcYPG.tif"><path class="cls-1" d="M92.09,36.6V31.16c-1.24-4.1-3.24-7.67-6.88-10.16a3.43,3.43,0,0,1-1-1.64A23.71,23.71,0,0,0,56,4.17a5,5,0,0,1-3.83-.71c-2.74-1.4-5.7-2.34-8.57-3.46h-3c-3.7.88-7.24,2-10.16,4.68a5.91,5.91,0,0,1-3.37,1.37c-6.88.39-12.12,3.21-15.36,9.5A6.74,6.74,0,0,1,9,18.29,15.57,15.57,0,0,0,.6,36.7a5.76,5.76,0,0,1,0,2.82A15.3,15.3,0,0,0,7.28,56.91c.76.49,1.52,1,2.23,1.54a17,17,0,0,0,17,2.72,2.54,2.54,0,0,1,3,.45,16.11,16.11,0,0,0,13,4.12c2.4-.29,4.78-1.78,7.06-1.58s4.41,2.22,6.75,2.76a8.38,8.38,0,0,1,5.19,3.38C64.41,74.15,67.18,78,70,81.91c.42.58.8,1.18,1.31,1.94l7.45-5.33c-1.43-4.19-2.78-8.13-4-11.77,3.46-3.14,6.76-5.84,9.72-8.88a14.28,14.28,0,0,0,4-12.73,3,3,0,0,1,.11-1.64C89.64,41.19,90.88,38.9,92.09,36.6ZM85,38.72c-5.68-3.87-8.37-9.32-8.13-16.52l-5.47.55c.51,3.36,1,6.56,1.48,9.77H60.62v5c3.52.19,7.12.47,10.72.57A13.81,13.81,0,0,1,82.11,43.7c2.2,2.75,1.09,8.35-2.32,11.13A51.24,51.24,0,0,0,74.06,60c-1.39,1.54-4,2-6.34,3.14l1.47,4.43c.54,1.62,1.08,3.24,1.86,5.53-2.79-3.26-5.29-5.84-7.38-8.71-2.4-3.3-6.8-1.66-9.57-4.37,2.95-2.27,5.83-4.57,8.81-6.75,2.5-1.83,5.27-1.4,8.11-.34L72.33,48c-5.28-2.5-9.8-1.17-14,2-3.55,2.68-7,5.55-10.56,8.17a11.12,11.12,0,0,1-13.95-.35,8.24,8.24,0,0,1-1.9-3.95,17.48,17.48,0,0,1-.07-3.69c-.14-3.57.27-6.85,4.6-8.29l-3.11-5.12-6.5,5.62L16.59,36.19l-2.86,4.59c2.92,1.8,5.71,3.5,8.47,5.26A7.92,7.92,0,0,1,26,52.83c.1,2.18-.7,3.33-2.71,3.54a17.13,17.13,0,0,1-5.59.09,19.63,19.63,0,0,1-10.45-7c-2.4-2.88-2.37-6.34-.85-9.81A3.52,3.52,0,0,0,6.57,37c-2.83-5-.68-12.54,7.14-14.54,1.36-.35,2-.77,2.34-2.28a10.68,10.68,0,0,1,12.38-8.39c2.16.36,3.42.15,4.83-1.83C36.67,5.11,43.6,4.29,48.83,7.77c-3.13,3.75-6.64,6.42-12.14,4.69l-.86,5.27,3.54.79c.24,3.64.47,7.12.73,10.94l5.59-.86c-.26-1.82-.52-3.42-.73-5a7.5,7.5,0,0,1,2.35-6.72c2.09-2,4-4.25,6.42-5.76A15.19,15.19,0,0,1,60.43,9c9.22-.73,16.67,4.79,19.16,13.71a4.86,4.86,0,0,0,2,2.44C86.67,28.44,88.13,34.2,85,38.72Z"/></g></g></g></svg>