<svg xmlns="http://www.w3.org/2000/svg" viewBox="0 0 105.92 87.99"><defs><style>.cls-1{fill:#fff;}</style></defs><title>Portfolio Growth</title><g id="Layer_2" data-name="Layer 2"><g id="Layer_1-2" data-name="Layer 1"><g id="rm3UIh.tif"><path class="cls-1" d="M102.79,4c-1.82,7.6-3.63,15.16-5.45,22.77l-7.85-1.88c.71-3,1.42-5.93,2.14-9L68.1,30.57l-6.28-6.66L38.56,41.15l-6-6L5,57.22l-5-6.3L33.09,24.44l6.15,6.15L62.79,13.14l6.66,7.06L86.76,9.39,78.58,8C79,5.28,79.51,2.66,80,0Z"/><rect class="cls-1" x="97.89" y="31.47" width="8.03" height="56.52"/><rect class="cls-1" x="81.72" y="39.55" width="8.03" height="48.44"/><rect class="cls-1" x="65.58" y="47.64" width="8.03" height="40.35"/><rect class="cls-1" x="49.41" y="55.7" width="8.03" height="32.27"/><rect class="cls-1" x="33.25" y="63.78" width="8.03" height="24.18"/><rect class="cls-1" x="17.07" y="71.88" width="8.04" height="16.09"/><rect class="cls-1" x="0.94" y="79.94" width="8.03" height="8.03"/></g></g></g></svg>